<svg width="16" height="16" viewBox="0 0 16 16" fill="none" xmlns="http://www.w3.org/2000/svg">
<g id="AI-stars">
<path id="Vector" d="M4.74642 10.4777C4.68069 10.4776 4.61641 10.458 4.56144 10.4214C4.50648 10.3848 4.46314 10.3326 4.43681 10.2714L3.69296 8.53685C3.34638 7.725 2.7094 7.0772 1.9109 6.72458L0.20453 5.96827V5.96821C0.123121 5.93274 0.0586638 5.86611 0.0251689 5.78283C-0.00838965 5.69948 -0.00838965 5.60609 0.0251689 5.52275C0.0586697 5.4394 0.123127 5.37282 0.20453 5.33731L1.9109 4.58099C2.70925 4.22845 3.34617 3.58099 3.69296 2.76948L4.43681 1.03491C4.47211 0.952507 4.53772 0.887456 4.61954 0.853578C4.70141 0.819641 4.79306 0.819641 4.87493 0.853578C4.9568 0.887456 5.02236 0.952507 5.05765 1.03491L5.80151 2.76948H5.80157C6.14832 3.58102 6.78531 4.22848 7.58362 4.58099L9.28999 5.33731C9.3714 5.37283 9.4358 5.43941 9.46935 5.52275C9.50291 5.60609 9.50291 5.69949 9.46935 5.78283C9.4358 5.86611 9.3714 5.93275 9.28999 5.96821L7.58362 6.72452V6.72458C6.7851 7.07719 6.14811 7.72499 5.80157 8.53685L5.05771 10.2714H5.05765C5.03121 10.3329 4.98764 10.3852 4.93233 10.4218C4.87707 10.4585 4.81244 10.4779 4.74642 10.4777Z" fill="#C500D7"/>
<path id="Vector_2" d="M11.8068 16.0014C11.7539 16.0014 11.7023 15.9857 11.6581 15.9563C11.6139 15.9269 11.5791 15.885 11.558 15.8358L11.1097 14.7919C10.9078 14.3197 10.5372 13.943 10.0727 13.7378L9.04585 13.2829C8.98087 13.2541 8.92955 13.2007 8.90282 13.134C8.87614 13.0673 8.87614 12.9926 8.90282 12.9259C8.92955 12.8592 8.98087 12.8057 9.04585 12.7769L10.0734 12.3224C10.5377 12.1169 10.9081 11.7401 11.1097 11.2679L11.5572 10.2241C11.5856 10.1581 11.6382 10.106 11.7038 10.0789C11.7694 10.0518 11.8428 10.0518 11.9084 10.0789C11.974 10.106 12.0266 10.1581 12.0549 10.2241L12.5025 11.2679C12.7043 11.7404 13.0753 12.1173 13.5402 12.3224L14.567 12.7773H14.567C14.6319 12.8061 14.6831 12.8596 14.7098 12.9263C14.7365 12.9929 14.7365 13.0676 14.7098 13.1343C14.6831 13.201 14.6319 13.2544 14.567 13.2832L13.5401 13.7382H13.5402C13.0757 13.9434 12.7052 14.3201 12.5034 14.7923L12.0559 15.8361H12.0558C12.0346 15.8853 11.9998 15.9272 11.9555 15.9565C11.9113 15.9859 11.8596 16.0015 11.8068 16.0014Z" fill="#C500D7"/>
<path id="Vector_3" d="M13.9396 4.18721C13.8957 4.18721 13.8527 4.17421 13.8159 4.1498C13.7792 4.12539 13.7503 4.09057 13.7327 4.04969L13.4231 3.32696H13.423C13.2874 3.00928 13.0381 2.75584 12.7256 2.61792L12.0146 2.30302C11.9605 2.27908 11.9178 2.23467 11.8956 2.17915C11.8733 2.12369 11.8733 2.06152 11.8956 2.00605C11.9178 1.95053 11.9605 1.90613 12.0146 1.88219L12.7256 1.56763C13.0376 1.42994 13.2868 1.17714 13.4228 0.86025L13.7326 0.137513H13.7327C13.7503 0.096636 13.7792 0.0618166 13.8159 0.0374077C13.8527 0.0129987 13.8957 0 13.9396 0C13.9835 0 14.0264 0.0130573 14.0632 0.0374664C14.1 0.061934 14.1289 0.0967535 14.1464 0.137689L14.4559 0.860427H14.4559C14.5918 1.17804 14.8411 1.43142 15.1536 1.56946L15.8637 1.88384C15.9177 1.90772 15.9604 1.95218 15.9826 2.00771C16.0049 2.06317 16.0049 2.12528 15.9826 2.1808C15.9604 2.23627 15.9177 2.28073 15.8637 2.30467L15.1527 2.61957C14.8402 2.7575 14.5908 3.01093 14.455 3.32861L14.1457 4.05135C14.128 4.09181 14.099 4.12616 14.0624 4.15027C14.0258 4.17439 13.9832 4.18721 13.9396 4.18721Z" fill="#C500D7"/>
</g>
</svg>
