<?xml version="1.0" encoding="UTF-8"?>
<svg width="3600pt" height="3600pt" version="1.1" viewBox="0 0 3600 3600" xmlns="http://www.w3.org/2000/svg">
 <path d="m3534.6 1473-1011.8 732.09 388.27 1187c5.9062 17.93 3.8984 37.531-5.5234 53.891-9.4258 16.359-25.371 27.93-43.848 31.812-18.477 3.8867-37.734-0.28516-52.945-11.469l-1008.8-735.99-1008.9 735.99c-15.211 11.184-34.469 15.355-52.945 11.469-18.477-3.8828-34.422-15.453-43.848-31.812-9.4219-16.359-11.434-35.961-5.5234-53.891l388.31-1187-1011.7-732.09c-15.297-11.012-25.188-28.016-27.203-46.758-2.0117-18.742 4.0391-37.461 16.648-51.473s30.586-22 49.438-21.969l1248.9 2.4258 383.76-1188.5c5.793-17.914 18.922-32.52 36.117-40.184 17.195-7.6641 36.836-7.6641 54.031 0 17.195 7.6641 30.324 22.27 36.117 40.184l383.64 1188.6 1248.9-2.5c18.824-0.003906 36.762 7.9922 49.348 21.988 12.586 14 18.633 32.684 16.637 51.402-1.9961 18.715-11.848 35.707-27.102 46.734z"/>
</svg>
