<svg width="20" height="18" viewBox="0 0 20 18" fill="none" xmlns="http://www.w3.org/2000/svg">
<path d="M16.3901 10.3518C15.1175 10.3518 13.9509 11.0274 13.3044 12.0875L7.16701 9.4043C7.20212 9.20083 7.21977 8.99459 7.21977 8.78568C7.21977 8.57492 7.20157 8.36821 7.16681 8.1674L13.3052 5.48368C13.9395 6.5239 15.085 7.22001 16.3899 7.22001C18.3804 7.22001 19.9999 5.60039 19.9999 3.61001C19.9999 1.61955 18.3803 0 16.3899 0C14.3995 0 12.7799 1.61962 12.7799 3.61001C12.7799 3.8214 12.7981 4.02858 12.8333 4.23L6.6954 6.91337C6.06132 5.8724 4.91528 5.1756 3.61001 5.1756C1.61955 5.1756 0 6.79522 0 8.78561C0 10.776 1.61962 12.3956 3.61001 12.3956C4.88324 12.3956 6.0505 11.7194 6.69646 10.6584L12.833 13.3412C12.7974 13.5448 12.78 13.7521 12.78 13.9612C12.78 15.9517 14.3996 17.5712 16.39 17.5712C18.3804 17.5712 20 15.9516 20 13.9612C19.9998 11.9715 18.3802 10.3519 16.3896 10.3519L16.3901 10.3518ZM16.3901 1.33794C17.643 1.33794 18.6623 2.35728 18.6623 3.6103C18.6624 4.86321 17.643 5.8825 16.3901 5.8825C15.1373 5.8825 14.1178 4.86316 14.1178 3.61013C14.1178 2.35722 15.1371 1.33776 16.3901 1.33776V1.33794ZM5.7483 9.5574L5.74603 9.56378C5.42047 10.4579 4.56265 11.0583 3.61031 11.0583C2.35741 11.0583 1.33795 10.039 1.33795 8.78593C1.33795 7.53302 2.35729 6.51356 3.61031 6.51356C4.86322 6.51356 5.88268 7.5329 5.88268 8.78593C5.88268 9.05103 5.83741 9.31043 5.74838 9.55733L5.7483 9.5574ZM16.3901 16.2343C15.1372 16.2343 14.1178 15.215 14.1178 13.962C14.1178 13.6954 14.1635 13.4342 14.2536 13.186C14.5788 12.2908 15.4373 11.6896 16.39 11.6896C17.6429 11.6896 18.6624 12.709 18.6624 13.962C18.6624 15.2149 17.643 16.2344 16.39 16.2344L16.3901 16.2343Z" fill="white"/>
</svg>
