<?xml version="1.0" encoding="UTF-8"?>
<svg width="3600pt" height="3600pt" version="1.1" viewBox="0 0 3600 3600" xmlns="http://www.w3.org/2000/svg">
 <path d="m3558.8 1398.8c-4.332-13.324-12.766-24.938-24.102-33.176-11.332-8.2344-24.984-12.672-38.996-12.676l-1248.9 2.4258-383.76-1188.6c-5.793-17.914-18.922-32.52-36.117-40.184-17.195-7.6641-36.836-7.6641-54.031 0-17.195 7.6641-30.324 22.27-36.117 40.184l-383.64 1188.6-1248.9-2.5c-18.824-0.003906-36.762 7.9922-49.348 21.988-12.586 14-18.633 32.684-16.637 51.402 1.9961 18.715 11.848 35.707 27.102 46.734l1011.8 732.09-388.38 1187.1c-5.9062 17.93-3.8984 37.531 5.5234 53.891 9.4258 16.359 25.371 27.93 43.848 31.812 18.477 3.8867 37.734-0.28516 52.945-11.469l1008.8-735.99 1008.9 735.99c15.211 11.184 34.469 15.355 52.945 11.469 18.477-3.8828 34.422-15.453 43.848-31.812 9.4219-16.359 11.434-35.961 5.5234-53.891l-388.31-1187 1011.8-732.09c11.359-8.2344 19.816-19.863 24.156-33.207 4.3359-13.348 4.3281-27.723-0.015625-41.066zm-1152.9 727.12c-11.395 8.2344-19.875 19.879-24.223 33.25-4.3438 13.371-4.3281 27.777 0.046875 41.137l339.35 1037.6-881.96-643.27c-11.359-8.2734-25.051-12.73-39.105-12.73s-27.746 4.457-39.105 12.73l-881.96 643.38 339.35-1037.6c4.375-13.359 4.3906-27.766 0.046875-41.137-4.3477-13.371-12.828-25.016-24.223-33.25l-884.43-639.96 1091.7 2.0859v-0.003906c14.031 0.003906 27.703-4.4453 39.047-12.703 11.348-8.2617 19.777-19.906 24.086-33.262l335.48-1038.9 335.37 1038.9c4.3086 13.355 12.738 25 24.082 33.262 11.348 8.2578 25.02 12.707 39.051 12.703l1091.7-2.0859z"/>
</svg>
