<?xml version="1.0" encoding="UTF-8"?><svg id="Ebene_1" xmlns="http://www.w3.org/2000/svg" viewBox="0 0 26 26"><defs><style>.cls-1{fill:none;stroke:#000;strokeMiterlimit:10;strokeWidth:1.5px;}</style></defs><path class="cls-1" d="m.75,11.25c0,.3.2.6.4.6h3V1.75h0c0-.3-.2-.5-.4-.5h-1.7c-.2,0-.4.2-.4.4l-.9,9.5s0,.1,0,.1Z"/><path class="cls-1" d="m22.45,14.75c1.5-.2,2.5-1.6,2.3-3.1l-2.3-7.8c-.2-1.3-1.4-2.3-2.7-2.3l-9.1-.8c-1.5,0-2.7,1.2-2.7,2.7v9.2h0l1.3,1.3c2,1.9,3.4,4.3,4.2,6.9l.2.7c.2.6.7,1.1,1.3,1.3.2.1.3.1.5.1.4,0,.8-.2,1.1-.5s.5-.6.6-1,.2-.7.2-1.1c0-.8-.1-1.5-.2-2.3-.1-.8-.3-1.5-.6-2.2l-.4-1h5.9c.1,0,.3,0,.4-.1Z"/></svg>