<svg width="347" height="170" viewBox="0 0 347 170" fill="none" xmlns="http://www.w3.org/2000/svg">
<path d="M278.366 86.0465C282.199 88.0972 281.319 94.8567 286.486 95.5696C286.551 93.6382 285.152 93.1713 285.649 90.8043C282.876 88.0935 277.787 84.8818 280.887 79.6047C283.278 81.3203 285.772 82.9316 287.326 85.4845C289.026 84.286 290.626 82.9984 292.368 81.8412C293.174 75.6189 287.696 75.6841 286.481 71.4772C287.638 70.3942 288.139 68.6547 290.688 68.9559C290.939 69.4492 291.363 69.7729 291.525 70.3553C291 71.161 289.817 71.7509 290.407 72.8728C291.475 73.474 292.323 72.9343 292.928 72.3143C293.229 70.7995 292.169 70.6489 292.369 69.2333C298.376 67.6833 304.001 65.7445 303.85 58.0298C302.663 57.12 302.829 56.5916 302.451 54.9488C300.782 53.8155 299.54 52.2543 298.249 50.7471C298.23 49.2436 300.917 49.2398 300.208 47.9484C297.317 47.7514 295.852 48.2295 294.051 46.2679C295.489 45.7471 295.651 43.9512 297.41 43.7466C298.535 43.7428 297.402 45.9906 298.528 45.9868C299.704 44.29 303.274 44.6301 303.008 47.3861C305.73 47.3711 306.097 49.7104 306.648 51.8664C308.486 52.0246 309.72 51.5778 310.01 50.186C309.335 47.5956 306.871 46.79 305.248 45.1434C307.207 44.1256 305.703 41.3382 308.055 40.6631C308.633 40.825 308.849 41.3572 309.731 41.2266C311.474 39.8888 312.796 36.2381 312.253 33.3854C311.936 31.72 309.936 31.0335 310.294 29.4648C312.668 30.1011 313.239 33.9528 315.332 33.9451C315.128 33.0892 315.617 32.9273 315.61 32.2646C313.944 30.2905 311.542 29.0531 310.011 26.9445C309.174 26.9483 309.055 27.6737 308.331 27.7816C306.572 25.6104 302.551 27.2683 300.489 25.2603C301.561 23.9952 301.8 21.9058 302.73 20.4989C307.221 19.8161 310.776 20.5641 314.77 20.4989C315.515 19.6743 313.73 19.6781 314.212 18.2587C315.23 15.9256 317.574 18.0001 318.973 18.536C319.841 18.3779 319.652 17.1592 320.092 16.5732C320.786 16.9083 321.186 17.5333 321.495 18.2536C320.693 19.4108 320.769 21.4501 319.814 22.4515C321.519 26.2529 324.965 28.3162 328.496 30.2927C329.136 28.9825 327.687 26.6031 328.777 25.5313C327.563 25.2 328.411 24.2625 327.936 23.5685C326.884 22.0261 323.858 22.2997 324.016 19.6479C326.074 19.2852 327.616 18.5297 329.899 19.0894C331.068 17.8243 332.232 15.7233 334.661 16.5681C334.761 14.4094 331.526 15.5929 331.298 13.7656C333.473 11.4024 336.403 14.56 339.418 14.0467C339.295 11.3171 336.033 10.7346 333.538 11.2481C328.137 8.70794 320.523 8.93884 315.059 7.60472C314.609 7.81305 315.117 8.97768 314.215 8.7267C311.616 7.48173 308.86 8.52213 304.692 8.1632C301.588 4.9478 293.734 8.14814 290.411 5.08717H282.291C281.601 5.33065 281.662 6.32463 280.611 6.2054C278.502 5.76614 276.454 5.85398 275.008 6.76389C273.339 6.19287 272.556 4.73579 271.088 3.96522C265.517 3.49837 261.38 5.36457 256.526 3.96522C255.3 3.6138 254.983 2.14923 254.286 1.72501C252.763 0.79631 250.516 1.20794 247.847 0.884153C247.038 0.787517 246.653 0.128628 245.885 0.0432952C243.248 -0.254142 241.562 1.06488 240.005 1.44264C237.491 0.640688 232.02 1.82792 231.323 3.68285C229.996 3.57115 228.986 3.77195 227.964 3.9602C227.914 4.38063 228.061 4.99306 227.683 5.08218C225.594 5.55659 223.917 5.21773 222.081 6.48153C220.442 1.36478 214.065 7.72275 219.837 9.28399C217.315 8.7255 214.882 8.07667 211.996 7.88464C211.633 8.57868 212.816 9.04553 211.996 9.28399C207.13 8.89116 203.436 9.36556 199.396 11.2431C198.544 10.8578 200.217 9.55383 198.833 9.5626H197.711C196.724 10.2792 198.52 11.3359 197.711 11.8028C195.64 11.5982 194.426 12.2534 194.071 13.7657C193.15 13.7544 192.68 13.2913 191.546 13.4845C191.172 14.2752 193.031 14.1861 192.11 14.6065C190.244 14.6065 189.453 13.5272 189.029 12.089C191.234 11.8342 194.118 13.28 194.912 11.2481C192.741 7.89361 185.505 9.46725 183.428 6.76398C178.069 6.34355 174.383 8.06292 169.707 9.00418C169.567 11.3523 166.646 12.67 165.509 14.8875C162.902 14.895 161.769 16.3797 159.906 17.1277C159.151 22.105 162.971 22.5831 165.789 20.4861C166.549 21.5001 167.563 22.2632 167.749 23.8483C167.144 24.083 166.796 24.5737 165.789 24.4068C165.786 23.6626 165.894 22.8067 165.508 22.4477C164.182 22.4289 163.515 23.069 162.987 23.8471C163.164 24.8837 163.746 25.5125 163.545 26.9281C162.524 27.1176 161.514 27.3171 160.187 27.2055C158.19 29.4795 155.615 32.4302 152.063 32.248C151.732 32.6647 151.82 33.4967 150.941 33.3662C149.727 33.5858 148.913 32.5831 148.701 33.9247C150.648 34.5685 153.755 37.6648 151.219 40.0856C148.13 40.5751 144.611 38.9021 142.818 40.6441C143.211 44.3302 141.461 45.4858 142.537 48.4853C144.465 48.2381 145.78 48.6008 145.899 50.1658C144.893 53.4577 140.181 53.0423 140.575 57.7259C136.365 60.5171 133.192 64.3459 130.775 68.9255C133.574 72.3179 129.9 76.3349 130.775 80.9698C132.621 82.6703 135.124 83.7182 135.536 86.8531C138.312 87.9023 139.572 91.1477 142.538 91.3334C144.821 91.4727 147.222 89.2162 150.102 90.7699C152.303 89.6128 154.512 88.4644 158.222 88.8108C158.985 89.5399 159.016 91.0008 160.185 91.3321C161.515 91.5367 162.109 91.0159 163.266 91.0548C166.833 92.7741 163.285 96.2053 163.824 98.896C164.059 100.061 165.99 101.186 166.905 102.535C168.945 105.539 169.071 108.654 169.986 112.059C168.899 114.703 166.531 117.001 167.188 120.46C167.562 122.415 169.86 124.276 170.546 126.62C171.167 128.718 170.827 131.181 171.668 133.062C172.585 135.113 174.98 136.914 175.307 139.223C174.575 140.658 175.4 142.072 176.426 142.586C185.794 142.154 192.452 139.008 193.79 130.545C197.26 130.352 198.254 126.574 196.589 123.543C198.459 120.652 202.433 119.865 204.43 117.101C205.12 111.465 202.795 108.839 202.471 104.22C205.902 95.2324 217.615 93.0387 217.591 81.5303C214.411 81.9583 207.34 85.2463 207.787 80.4121C212.171 79.9076 217.329 77.8368 220.393 75.092C224.662 74.4168 226.13 70.9352 227.953 67.8092C226.681 65.7158 223.443 65.5966 222.63 63.0513C221.597 64.4431 220.351 65.6266 217.587 65.2915C217.191 61.5791 212.641 62.026 212.545 58.0086C212.919 57.7238 213.578 57.7351 213.948 57.4502C216.372 59.4783 218.739 63.6927 223.467 61.648C224.971 65.4067 231.293 63.7301 235.789 63.8882C236.872 65.3303 238.275 66.4447 239.987 67.2505C239.297 68.7038 241.062 69.325 241.95 70.0529C243.044 70.1257 242.99 69.0389 244.186 69.2121C244.445 73.9044 246.834 76.4599 247.829 80.4155C249.923 81.5877 249.483 85.2961 251.75 86.2988C254.904 84.7062 255.289 81.3366 254.831 77.0533C257.687 75.2448 259.133 72.022 262.395 70.6112C262.399 69.867 262.241 68.9609 262.954 68.9308C265.105 69.0274 266.586 68.4564 267.996 67.8088C269.079 71.1132 272.931 71.6491 272.757 76.2136C274.242 76.9967 274.77 75.2811 276.12 75.0916C277.675 77.9919 279.193 81.6464 278.365 86.0454L278.366 86.0465ZM188.751 36.4725C191.179 36.0985 191.408 37.9221 192.671 38.7127C193.697 38.8056 194.229 38.4002 194.915 38.1543C195.213 37.1088 193.862 37.7112 194.074 36.7549C194.757 36.1299 195.659 35.7296 197.15 35.914C197.435 37.1364 196.572 37.2017 196.313 37.8769C197.674 40.156 202.1 39.3728 202.197 42.9159C197.625 44.8122 193.475 39.9202 189.875 43.197C189.084 43.4279 189.149 42.8042 188.475 42.9159C187.299 42.8657 187.608 44.2926 186.235 44.0379C186.29 42.1792 186.761 38.5044 188.75 36.4726L188.751 36.4725ZM172.508 23.3112C172.713 22.4552 172.026 22.4866 172.227 21.6307C172.802 20.8062 174.09 20.6945 174.467 19.6679C174.229 18.7856 173.022 18.8697 172.787 17.9874C172.579 14.6994 176.796 15.8363 176.989 12.9484C177.93 12.8518 179.028 12.3121 179.51 13.2295C179.194 14.8723 176.989 14.6289 176.429 16.0282C175.716 22.0924 182.123 17.6434 184.27 19.6677C182.165 20.2651 178.614 19.4292 177.828 21.3481C178.117 21.8953 180.526 20.5311 180.068 22.4701C179.278 23.2257 178.92 21.9731 177.828 22.189C176.853 22.6132 176.648 23.8117 176.71 25.27C174.979 26.6882 172.611 25.0579 170.549 26.6731C169.204 25.4395 166.381 27.2981 165.791 25.5549C168.744 25.5235 170.433 24.2284 172.508 23.311L172.508 23.3112ZM190.15 103.407C190.956 104.001 190.604 105.755 191.272 106.488C190.343 106.103 189.452 104.529 190.15 103.407ZM189.032 56.3615C185.014 56.4268 181.66 52.8374 177.551 54.4025C177.123 55.0965 177.482 56.5736 176.992 57.2011C172.678 56.1908 169.868 53.6808 165.512 52.7208C166.237 51.3717 166.615 49.636 165.512 48.2405C162.447 48.4175 160.064 48.5718 157.107 48.5217C154.338 48.4715 153.271 50.3188 150.946 50.7619C149.893 50.9627 147.627 51.3329 146.744 49.9248C148.495 48.5907 151.849 48.8643 153.186 47.1223C152.492 43.5143 157.138 43.6296 157.667 40.403C160.508 41.3744 161.943 40.28 163.828 39.0037C166.029 41.7521 169.692 43.0361 172.228 45.4457C172.429 46.3016 171.944 46.4635 171.951 47.1262C173.343 47.2994 174.098 45.4909 173.069 44.886C173.101 44.1693 174.006 44.3312 174.75 44.3275C172.746 41.9454 168.674 41.633 168.03 37.8854C170.965 38.0511 173.043 41.4485 176.15 42.3657C176.123 45.7543 178.687 46.5562 179.512 49.085H180.353C181.187 48.7073 181.263 47.5702 182.312 47.4046C182.502 45.7203 180.353 46.3755 180.632 44.6059C181.985 44.9184 182.545 42.9869 183.431 43.765C185.053 45.8734 184.965 49.6988 188.751 49.6448C189.953 49.818 189.892 48.735 190.995 48.804C191.441 49.2897 192.04 49.6247 192.671 49.9259C193.97 49.8218 194.426 48.8768 196.034 49.0851C197.336 51.4796 195.656 54.0701 194.915 56.0868C193.462 56.6729 192.695 55.4154 191.272 55.5233C190.489 55.5823 189.891 56.3452 189.032 56.3615ZM193.231 100.05C192.911 97.7667 193.685 96.5794 196.029 96.9648C196.472 98.3754 195.27 101.118 193.231 100.05ZM196.592 113.771C195.531 113.516 196.387 112.645 196.314 111.812C197.356 111.584 196.831 113.535 196.592 113.771ZM199.673 71.4801C199.414 66.6924 195.212 64.3782 194.915 60.5578H196.31C198.216 62.9486 200.482 64.9767 201.353 68.3955C202.498 70.7198 206.427 72.887 205.551 75.3972C206.85 76.4339 207.343 78.2737 207.791 80.1586C204.032 78.32 202.113 74.6454 199.672 71.4801H199.673ZM217.597 48.5171C215.507 49.7822 212.878 48.1971 211.713 46.8366C211.803 45.9004 212.006 45.0708 212.554 44.5964C211.235 42.4604 209.081 41.1651 208.074 38.7131C209.135 36.7854 210.934 35.5982 214.239 35.9106C214.231 36.5733 214.721 36.7352 214.52 37.5911C213.24 37.5221 212.473 37.9689 211.999 38.7131C213.379 40.9759 215.353 42.1479 217.322 43.1934C217.607 44.1346 216.451 43.6289 215.923 43.7519C216.036 45.726 218.421 46.4815 217.597 48.5171ZM223.198 39.2764C222.242 39.2073 221.741 38.679 221.799 37.5959C223.137 37.2633 223.765 38.566 223.198 39.2764ZM224.597 11.5519C226.228 9.23892 222.913 9.09586 222.921 6.78664C224.212 7.64632 224.995 9.01178 226.283 9.86768C226.426 11.139 225.87 11.6987 224.597 11.5519ZM239.159 37.0325C238.832 36.9899 238.925 36.523 238.878 36.1917C239.356 36.0913 239.41 36.4113 239.437 36.7552C239.202 36.705 239.176 36.8669 239.159 37.0325ZM252.322 3.98859C252.715 3.54181 253.289 3.27572 254.002 3.14772C253.749 3.73381 253.174 4.00366 252.322 3.98859ZM272.767 27.7911C271.746 28.1727 271.383 29.2093 270.246 29.4716C270.986 28.238 272.347 27.1272 271.645 25.2699C272.821 25.3125 272.79 26.5575 272.767 27.7911Z" fill="#E7E6FF"/>
<path d="M119.578 103.688C115.006 102.767 113.888 99.5822 108.097 100.326C106.949 97.0344 102.229 98.8993 100.815 96.1245C101.44 94.6562 99.2031 93.6333 99.4152 91.6404C97.7498 88.8304 94.276 90.0214 91.8551 89.1228C89.8232 88.3711 89.6839 85.5723 87.3748 85.4795C87.105 84.724 86.9243 83.8756 86.5339 83.2393C85.5663 84.6499 85.2425 82.6143 83.7353 82.9581C81.0408 84.2345 78.2536 82.9431 75.8941 81.5588C74.7947 81.4898 74.8536 82.5728 73.6539 82.3997C73.5422 81.5475 74.3906 80.9727 73.3727 80.7154C72.4164 81.9064 70.7322 82.3733 68.8924 82.6783C67.9562 83.6107 67.9675 85.4883 66.3711 85.7593C64.9868 84.3562 62.5507 84.5369 60.7686 85.482C59.3956 84.8921 58.5485 83.7814 57.9699 82.4009C58.3753 80.6539 58.8648 78.9998 59.0881 77.0773C57.7967 75.2763 54.905 76.7924 52.6461 75.959C53.4129 73.6461 54.8938 72.0458 55.1674 69.2397C54.3429 68.1604 52.6649 69.0126 51.5241 69.2397C50.687 71.8577 48.6012 73.2256 44.8048 72.8792C40.6104 70.3002 43.3126 65.1874 44.2463 61.1161C46.7526 59.2424 49.8247 57.041 53.7656 58.8759C55.8903 56.5817 60.9944 57.1954 62.7287 58.8759C62.8517 59.8397 62.617 60.4447 62.4476 61.1161C63.2684 61.7875 64.3477 62.2029 65.8098 62.2381C65.7559 60.2376 65.1974 58.7416 65.2513 56.6356C67.484 53.7327 71.2542 52.3712 74.4934 50.4746V47.3936H75.8927C77.3385 44.733 80.0405 43.3262 83.4528 42.6357C83.4679 38.8231 87.7901 39.3201 90.4545 38.1554C90.1496 38.7264 89.1092 39.3 89.896 40.1145C92.0283 38.3261 96.5312 38.9072 97.7373 36.1939C96.2099 35.781 94.3024 38.1492 92.9759 36.1939C92.6207 34.3478 94.1242 34.3553 94.3752 33.1129C93.6774 32.1565 92.6207 33.2246 91.8539 32.5544C92.9181 29.964 95.7633 32.3925 96.8964 33.1129C97.9067 32.4188 95.6276 32.0185 96.3329 31.7135C99.306 32.026 101.422 30.3719 103.616 30.3104C102.683 31.9332 99.8908 33.079 99.9724 34.7907C102.713 34.5711 104.399 35.4031 106.414 35.9127C106.885 34.9451 106.187 34.0578 106.414 32.5543C106.037 31.9996 104.459 32.6434 104.452 31.7172C104.895 30.1986 105.994 29.339 106.132 27.5155C105.291 26.3006 104.236 25.3029 102.77 24.7168C102.238 22.9159 102.742 20.0781 101.371 19.1181C99.5733 19.4696 99.2458 21.2893 97.1688 21.3584C96.6868 20.9994 96.0694 20.7798 96.0468 19.959C95.9112 19.0767 96.9065 19.3227 96.6053 18.2823C95.418 17.9736 94.8897 17.0097 94.0839 16.3195C92.6959 17.0059 91.22 16.2379 89.6036 16.3195C86.1184 18.9763 88.8406 26.7248 81.48 25.8426C80.7132 27.5005 80.786 30.0029 78.399 30.0405C76.7449 28.3826 78.4416 27.056 78.9625 25.2791C74.8912 25.6179 74.132 22.6385 70.2804 22.7615C70.7122 21.1539 70.1876 21.3622 69.722 20.2402C72.8482 16.4577 78.8021 15.5026 83.7254 13.5157C83.5208 14.3177 81.8366 14.5687 82.6034 15.4786C84.3918 15.7371 86.4627 14.6151 88.2059 15.1975C88.4331 13.2848 85.3069 13.2509 85.6846 12.1164C88.5335 13.2108 91.4401 10.4661 92.6863 8.19196C94.1509 8.25722 95.485 8.1882 96.6069 7.9146C97.5482 8.7429 98.3727 9.69169 99.4056 10.4321C98.0364 12.8882 93.6036 12.287 91.5644 14.0755C92.6211 14.8586 93.8008 13.8283 95.2039 14.0755C96.6421 15.7183 98.315 17.1252 101.365 17.1565C101.832 16.278 100.324 16.012 101.087 15.7572C102.595 16.3358 103.709 16.3081 104.168 14.6352C104.222 13.463 102.792 13.7718 103.046 12.395C104.446 11.3421 104.658 13.4668 105.845 13.5132C107.129 13.0238 108.594 12.7113 108.93 11.273C108.159 10.0858 105.966 10.3129 105.29 9.0328C105.063 8.06143 105.707 7.95724 105.568 7.07371C103.779 6.15628 101.177 6.05213 100.529 3.99268C94.9655 4.15834 87.6676 2.63599 87.3662 7.3549C87.6247 8.03011 89.4018 7.18547 89.0467 8.47688C88.1719 9.55995 86.8567 10.2075 85.4033 10.7171C84.6942 10.0306 85.9932 10.1197 85.6844 9.03662C85.0444 8.64758 83.9375 8.73165 84.004 7.63351C84.2964 6.99345 84.1809 5.94427 84.5625 5.39331C85.8652 4.73442 88.468 5.37825 88.7642 3.71284C86.0459 2.01608 84.3 4.89255 82.326 5.67192C82.4528 4.86621 83.3175 4.79341 83.1669 3.71284C81.2003 3.28865 78.7255 4.59135 77.5643 5.11218C78.05 6.47638 79.6075 6.34209 80.6454 6.51153C79.8359 7.18674 79.6627 8.05394 80.0869 9.31398C79.5472 9.70681 78.9574 10.0544 78.1241 10.1548C77.8806 9.07177 79.3502 9.70052 78.9649 8.47438C77.2267 7.48794 75.8387 9.01028 75.3254 10.1548C73.2044 9.93898 69.9892 10.8263 69.4421 9.03286C71.8053 9.67668 73.4205 8.99396 75.0446 8.192C75.2379 7.06626 73.8649 7.50552 73.9264 6.51153C74.1109 5.11594 75.7926 5.20507 76.1628 3.9902C74.6781 3.06526 73.152 5.2816 71.6825 5.38955C70.2092 5.50125 67.2986 3.60492 66.64 3.43046C62.1559 2.23191 58.2127 3.41164 56.2761 6.22912C57.1822 7.58201 59.672 5.23768 61.0375 6.22912C60.6283 7.22436 60.42 8.41159 59.6381 9.03157C57.1243 7.99871 52.8221 8.75045 50.675 7.3511C48.1461 8.26477 43.7925 8.31119 40.311 9.03157C31.4054 5.89656 20.0776 6.35214 11.7471 9.59006C11.6504 10.3606 12.549 11.5567 11.7471 12.1114C9.414 11.7186 5.87851 11.5943 5.02775 13.5107C5.6603 15.0921 8.10879 13.1907 8.94837 14.6327C6.12963 15.7233 1.83131 15.3418 0 17.4314C4.51434 20.6818 12.8725 21.0208 17.6416 18.5534C19.5304 20.2113 24.4426 18.8458 24.6434 22.1929C23.5791 22.9559 24.755 24.305 23.8025 25.2739C24.4689 26.1612 25.8306 24.6113 26.0427 25.8374C25.0174 27.3334 26.0427 30.8799 24.3622 31.7207C24.7513 32.5415 25.7314 32.7775 25.7616 33.9609C23.4561 39.5358 16.8171 42.1385 19.0423 51.3215C22.9365 51.7218 21.6565 57.298 23.519 59.7262C23.5655 60.5169 22.6782 60.3776 22.6819 61.1256C23.0785 62.0354 24.2934 62.1283 24.9221 62.806C24.6059 65.1303 26.3604 66.7115 27.7208 66.4455C26.4984 63.1874 25.2572 59.9495 24.0774 56.6451C24.5129 56.3326 24.6635 55.739 25.4806 55.808C26.5373 56.3903 26.1972 57.2889 26.039 58.6067C28.0395 62.2073 30.9049 64.9407 32.4772 68.9706C32.4622 69.8918 31.6828 70.0424 31.9187 71.2108C35.3237 73.6894 39.607 77.3139 45.0814 75.9722C46.7505 76.3726 46.9702 78.2312 48.7209 79.0533C51.3238 80.2719 55.3862 79.4737 55.1629 83.8147C57.4257 85.0985 59.2381 86.8367 61.8822 87.7391C62.2876 86.7439 62.3064 85.3609 63.8413 85.4989C65.1791 87.0564 65.8117 89.3155 65.5218 92.5007C63.9066 94.7132 61.2699 95.9056 61.0415 99.5024C60.8909 100.494 62.0329 100.193 61.8823 101.179C61.6012 102.112 60.3324 102.058 60.483 103.419C63.2051 107.695 66.285 111.619 68.3242 116.582C71.2007 119.362 74.4925 118.212 76.1655 121.624C78.1697 125.703 75.9069 132.234 77.2874 137.863C77.866 140.226 78.6027 143.908 77.5686 146.545C79.4147 148.064 78.1584 152.675 80.371 153.824C80.5329 153.335 80.0322 152.177 80.6484 152.147C81.0537 152.769 81.3499 153.496 81.2068 154.665C81.1642 155.182 80.2581 154.838 80.0886 155.223C80.5354 156.368 80.6132 156.608 80.3697 158.026C80.5894 158.643 81.685 158.389 81.7691 159.144C81.4842 159.511 81.4955 160.177 81.2056 160.543C81.9423 162.144 83.4571 162.961 84.0081 164.745C85.3497 165.27 86.3173 166.168 87.0891 167.266C89.761 167.713 93.9215 171.234 96.3311 168.388C94.0068 166.885 91.1189 165.944 90.1702 163.065C91.1918 162.124 91.3963 160.37 92.1293 159.144C91.5005 158.184 89.4925 158.608 89.3306 157.181C90.5605 156.074 90.9195 154.1 91.5708 152.423C90.5844 152.288 89.8013 151.949 89.6117 151.024C90.5643 150.943 91.882 151.24 92.4104 150.743C92.4681 149.868 92.2259 148.685 92.6915 148.222C98.3779 149.081 98.1045 143.992 95.7726 142.342C97.1179 142.396 97.8232 143.09 99.412 142.9C101.49 142.361 101.059 139.897 102.211 137.858C103.506 135.571 106.559 134.469 105.013 130.579C106.71 128.632 109.135 127.417 112.573 127.217C114.84 124.228 116.34 120.042 115.658 114.895C117.374 111.54 122.679 108.468 119.579 103.687L119.578 103.688ZM77.2909 39.5572C77.2683 40.806 75.2665 40.3981 74.4922 40.1157C74.8323 39.3376 76.2116 39.5961 77.2909 39.5572ZM100.814 11.5516C100.806 11.8252 100.475 11.7675 100.255 11.829C100.261 11.5592 100.598 11.6131 100.814 11.5516ZM63.5673 42.0748C64.3077 39.4531 65.4297 37.2167 68.6098 37.0323C66.0458 37.8305 66.3081 41.4538 63.5673 42.0748ZM68.6098 42.3559C69.4469 41.5113 71.17 41.554 72.5304 41.2377C71.8377 42.1137 69.9752 43.0537 68.6098 42.3559ZM70.2915 37.0323C71.6444 36.5541 72.7777 37.4025 73.9349 37.3134V38.4316C71.8265 38.0074 71.6759 39.5385 70.85 40.3945C69.408 40.0004 70.3417 37.695 70.2915 37.0323ZM70.0142 35.6367C67.5079 36.8515 65.3491 34.9038 63.0125 35.6367C64.462 34.3829 69.7706 31.5615 70.0142 35.6367ZM60.7686 9.3114C61.9835 8.93364 64.1697 9.76573 65.8112 9.86989C65.1058 10.4823 62.1064 10.2477 60.7686 10.151V9.3114ZM60.4913 27.2316C60.603 28.3686 60.3909 29.1869 59.3693 29.1944C58.802 28.4879 59.0455 26.7961 60.4913 27.2316ZM50.1273 18.2707C51.0837 17.4913 52.5483 16.038 53.7668 17.1487C53 17.967 51.6232 18.1791 50.1273 18.2707ZM53.4895 12.6694C51.597 12.3645 51.026 13.3785 49.2917 13.2279C49.0746 11.4245 53.3543 10.7455 53.4895 12.6694ZM73.6526 84.9227C73.1594 84.8537 73.0126 84.4408 73.0941 83.8007C73.9613 83.674 74.0931 84.5098 73.6526 84.9227Z" fill="#E7E6FF"/>
<path d="M202.196 8.47259C201.556 8.39603 201.143 8.53784 201.074 9.03107C201.452 9.12017 201.61 9.43142 202.196 9.31219V8.47259Z" fill="#E7E6FF"/>
<path d="M97.1736 10.1501C96.8925 9.07835 94.8682 9.72593 95.2108 10.991C96.1357 10.9822 97.1962 11.1064 97.1736 10.1501Z" fill="#E7E6FF"/>
<path d="M84.0117 16.8718C84.8137 16.9257 85.5391 16.9069 85.4111 16.0309C85.0446 15.672 84.3782 15.672 84.0117 16.0309V16.8718Z" fill="#E7E6FF"/>
<path d="M150.668 27.5134C148.028 28.3581 149.628 30.2393 148.988 31.4341C151.383 30.4702 156.17 31.8972 155.99 28.353C154.085 27.3578 153.102 25.4502 151.788 23.8689C152.039 23.3756 152.467 23.0519 152.629 22.4695C150.975 22.4808 151.801 21.1003 150.948 20.7891C149.244 21.325 147.428 21.7529 147.867 24.4286C148.566 25.6974 150.803 25.4201 150.668 27.5134Z" fill="#E7E6FF"/>
<path d="M147.584 28.6353C147.303 27.1394 148.063 26.6851 148.425 25.8329C146.706 24.0319 144.955 25.9835 143.383 26.6738C143.984 28.1082 143.221 28.3931 142.824 29.4724C144.477 30.2932 146.297 29.0897 147.584 28.6353Z" fill="#E7E6FF"/>
<path d="M23.8056 26.674C22.9271 26.5435 22.6648 27.0254 22.4062 27.5149C22.8756 27.9893 24.0516 27.7383 23.8056 26.674Z" fill="#E7E6FF"/>
<path d="M315.336 34.5156C315.421 35.6451 315.745 36.5287 317.013 36.4747C317.206 35.0703 316.342 34.724 315.336 34.5156Z" fill="#E7E6FF"/>
<path d="M319.26 42.6404C318.925 40.709 320.479 41.9464 321.504 41.7995C322.19 41.5523 322.129 40.5583 323.184 40.6776C322.282 38.7813 319.171 39.0887 317.582 37.8789C318.106 39.3636 318.226 40.3538 317.301 41.5184C317.799 42.0467 318.119 42.7609 319.26 42.6404Z" fill="#E7E6FF"/>
<path d="M164.105 42.6403C164.224 42.1044 164.907 42.1358 164.663 41.2409C164.174 41.2221 163.792 41.3024 163.541 41.5221C163.468 42.1584 163.612 42.5712 164.105 42.6403Z" fill="#E7E6FF"/>
<path d="M318.97 43.1968C321.079 46.1649 319.379 48.5481 317.29 50.1985C314.61 50.014 312.493 51.3895 311.406 53.5607C312.459 54.2861 312.614 55.9051 314.209 56.0821C314.702 53.9774 316.711 52.4814 318.97 53.001C319.456 51.2465 322.201 51.7561 323.45 50.7608C322.413 47.5065 322.879 42.8228 318.97 43.1968Z" fill="#E7E6FF"/>
<path d="M163.269 45.9918C165.128 46.3809 165.15 44.3151 164.668 43.1894C162.83 42.6685 162.653 44.9552 163.269 45.9918Z" fill="#E7E6FF"/>
<path d="M171.675 47.121C170.56 47.3142 168.571 46.6315 168.312 47.6795C169.146 48.2467 169.952 48.8403 171.394 48.8014C171.189 47.9468 171.876 47.9769 171.675 47.121Z" fill="#E7E6FF"/>
<path d="M194.079 50.7585C193.335 50.7623 192.429 50.6042 192.398 51.317C192.823 51.75 194.319 51.819 194.079 50.7585Z" fill="#E7E6FF"/>
<path d="M255.118 84.3633C254.766 85.5431 254.478 88.3582 255.399 89.1248C256.344 89.5992 257.029 88.8976 257.639 88.2839C257.332 86.4453 256.684 84.9455 255.118 84.3633Z" fill="#E7E6FF"/>
<path d="M305.25 89.9668C304.013 89.4309 303.916 87.7542 302.452 87.4492C300.971 90.9155 297.374 92.2685 294.888 94.7321C294.032 94.9329 294.067 94.2464 293.211 94.4509C291.373 96.8417 294.186 98.6915 294.329 100.893C297.144 101.094 299.504 102.759 302.171 101.734C302.637 99.2163 303.436 97.0264 305.252 95.8505C303.885 94.1086 303.982 91.7214 305.25 89.9672L305.25 89.9668Z" fill="#E7E6FF"/>
<path d="M289.568 100.049C289.356 99.9833 289.245 99.8139 289.291 99.4851C288.701 98.8727 288.046 99.4274 287.607 99.7624C287.125 98.5677 285.521 98.4899 285.93 96.4002C281.956 94.4914 279.823 90.744 275.008 89.6758V90.794C280.482 94.19 281.493 102.048 287.607 104.797C287.657 104.47 288.05 104.492 288.448 104.516C288.597 102.804 289.044 101.386 289.568 100.049Z" fill="#E7E6FF"/>
<path d="M312.541 95.8449C310.71 95.5173 306.361 94.7116 307.221 96.9669C308.838 95.8374 312.228 97.9458 312.541 95.8449Z" fill="#E7E6FF"/>
<path d="M341.649 106.771C341.51 105.888 342.505 106.138 342.208 105.094C340.87 104.473 339.802 103.575 339.126 102.291C335.037 101.417 329.801 97.1259 326.524 101.169C325.744 99.7927 322.981 94.6963 321.766 98.9293C322.162 99.9358 323.173 100.321 323.165 101.728C326.099 102.619 329.449 103.097 330.448 105.926C330.163 106.851 328.894 106.801 329.048 108.166C331.454 107.221 332.349 108.94 333.529 109.288C336.69 110.205 336.132 107.55 338.009 107.325C340.006 107.09 340.554 108.763 341.371 110.41C342.713 110.648 344.055 110.896 345.292 111.251C345.026 108.806 342.704 108.421 341.649 106.771L341.649 106.771Z" fill="#E7E6FF"/>
<path d="M310.841 104.25C311.122 101.914 309.761 101.219 309.445 99.4889C310.347 99.273 310.91 98.7146 311.126 97.8047C308.909 98.1749 308.215 98.9154 306.364 97.8047C306.256 99.1965 305.605 100.034 305.242 101.167C306.541 101.456 305.535 104.051 306.642 104.529C307.745 104.047 306.919 101.634 308.045 101.167C308.647 102.524 308.79 104.339 310.841 104.25Z" fill="#E7E6FF"/>
<path d="M290.412 102.286C292.201 102.579 292.945 101.832 292.653 100.046C291.095 98.4045 288.868 100.822 290.412 102.286Z" fill="#E7E6FF"/>
<path d="M343.355 104.253C343.668 105.914 347.092 106.153 346.999 103.972C346.506 103.682 344.258 104.018 343.355 104.253Z" fill="#E7E6FF"/>
<path d="M300.494 107.886C297.202 105.923 292.035 104.883 288.172 105.368C290.226 107.917 296.985 108.649 300.494 107.886Z" fill="#E7E6FF"/>
<path d="M301.332 108.45C302.173 109.244 304.516 109.055 305.249 108.172C304.49 107.828 301.665 107.466 301.332 108.45Z" fill="#E7E6FF"/>
<path d="M308.333 108.731C308.768 107.767 306.459 107.401 306.652 108.45C306.686 109.066 307.839 108.569 308.333 108.731Z" fill="#E7E6FF"/>
<path d="M310.84 110.413C312.293 110.676 314.094 109.044 315.324 108.173C313.566 107.596 311.577 109.045 310.84 110.413Z" fill="#E7E6FF"/>
<path d="M305.539 109.292C305.374 110.278 306.993 110.911 307.22 109.847C306.723 109.601 306.511 109.068 305.539 109.292Z" fill="#E7E6FF"/>
<path d="M340.817 123.575C340.112 122.623 338.824 122.558 338.296 121.335C337.713 119.986 338.138 118.012 337.737 116.293C335.413 115.984 336.522 113.451 335.497 111.531H334.656C332.736 113.81 333.646 118.922 330.736 120.213C329.051 118.911 326.765 118.213 325.693 116.293C326.607 115.441 327.736 113.922 327.377 112.653C325.187 113.366 323.73 112.376 322.054 111.812C321.425 111.928 322.096 113.347 321.213 113.212C318.703 112.24 318.552 115.926 316.732 116.574C315.942 116.057 315.467 115.221 314.211 115.171C311.405 115.537 311.72 119.034 308.331 118.81C307.418 124.716 298.855 122.967 295.728 126.652C293.176 131.32 297.051 138.028 293.207 142.054C296.121 145.169 299.364 139.953 303.566 141.777C306.446 139.49 313.081 137.343 317.006 139.537C317.129 140.716 318.109 141.044 317.85 142.618C319.211 142.579 319.473 141.442 320.649 141.218C320.541 143.678 322.234 144.121 321.49 146.538C323.429 148.566 326.194 146.905 328.214 148.215C329.479 147.244 331.149 146.673 333.253 146.538C336.662 140.798 344.018 139.005 344.457 130.296C343.782 128.692 342.24 127.544 341.376 125.816C341.083 125.23 341.26 124.177 340.817 123.575Z" fill="#E7E6FF"/>
<path d="M319.262 112.373C319.639 112.463 319.798 112.774 320.384 112.655V111.814C319.747 111.733 319.335 111.88 319.262 112.373Z" fill="#E7E6FF"/>
<path d="M211.993 117.133C210.849 117.939 209.391 117.85 208.631 118.81C207.756 119.928 208.897 121.636 208.631 123.011C208.199 125.255 205.732 127.492 208.073 130.294C209.284 130.915 210.637 130.333 211.712 130.013C212.815 124.705 218.625 118.451 215.356 113.211C214.037 114.534 213.543 116.041 211.993 117.133Z" fill="#E7E6FF"/>
<path d="M323.72 154.098C326.361 154.12 327.749 152.895 328.205 150.735C324.727 149.965 323.023 151.21 323.72 154.098Z" fill="#E7E6FF"/>
</svg>
