<svg width="41" height="75" viewBox="0 0 41 75" fill="none" xmlns="http://www.w3.org/2000/svg">
<g id="Adler-und-Saeulenelement">
<path id="Vector" d="M18.0358 10.5458C18.0685 10.2744 18.0879 9.99456 18.0879 9.70863C18.0879 9.55234 18.0891 9.37061 18.0697 9.16465C20.4843 9.13073 22.6021 7.39096 22.6021 5.39071C22.6021 4.37302 21.9382 3.6049 21.5638 3.14573C21.6474 3.12756 21.7322 3.10817 21.8182 3.08757C22.172 3.39531 23.1752 4.48811 23.1752 5.86806C23.1752 8.26811 20.7763 10.4961 18.0358 10.5458ZM15.603 2.1874C15.5582 1.91965 15.4565 1.67734 15.3014 1.46896C15.3099 1.22423 15.4104 0.990401 15.8042 1.18304C15.5909 1.40111 15.7557 1.78759 15.7557 1.78759C15.7557 1.78759 16.1919 1.58527 16.101 1.29692C16.748 1.452 16.2827 2.32067 15.603 2.1874ZM15.0421 3.41954C14.9561 3.06092 14.7719 2.69261 14.5381 2.41517C14.3249 2.16317 13.9723 1.86392 13.4974 1.86392C13.2805 1.86392 12.9171 1.96569 12.6857 2.06382C12.5996 1.90632 12.4312 1.52711 12.4312 1.35629C12.4312 1.18061 12.7281 1.00252 13.2963 1.00252C14.5466 1.00252 15.2929 1.56709 15.2929 2.51452C15.2929 2.84769 15.1608 3.15057 15.0421 3.41954ZM18.2527 19.533C18.3981 19.533 18.4683 19.556 18.5531 19.5875C18.913 20.5664 20.3002 22.414 20.3583 22.4928L20.3704 22.5097L20.391 22.5049C20.7315 22.4504 21.6002 22.3195 22.3271 22.3195H22.344C22.4228 22.3195 22.5125 22.3195 22.5694 22.3753C22.6166 22.4225 22.6397 22.5049 22.6397 22.6224C22.6397 22.8029 22.5633 23.1119 22.4713 23.2439C22.2168 22.9665 21.8037 22.8417 21.1422 22.8417C20.9435 22.8417 20.7085 22.9011 20.5813 22.935L20.5292 22.9459L20.4698 22.9617L20.8514 23.3433C21.4402 23.9321 21.9491 24.4397 21.9491 24.7777C21.9491 24.9813 21.7504 25.2466 21.5687 25.3641C21.5287 24.745 20.9035 23.9163 20.2941 23.4523L20.242 23.4136L20.2323 23.6316C20.2239 23.7794 20.2105 24.0012 20.2105 24.2386C20.2105 25.4174 20.0906 25.5968 19.6823 25.5968C19.6193 25.5968 19.5236 25.5786 19.4642 25.5568C19.6944 25.2721 19.7853 24.8965 19.7853 24.2374L19.7816 23.9333L19.778 23.6886C19.778 23.4184 19.8059 23.2185 19.8277 23.0574L19.8398 22.9665L19.7756 22.958C19.5842 22.9314 19.2292 22.8829 18.9578 22.8829C18.375 22.8829 17.9801 22.9362 17.6942 23.2052C17.5052 23.0525 17.3113 22.7896 17.3113 22.6236C17.3113 22.3777 17.464 22.3583 17.6651 22.3583C17.7669 22.3583 17.8614 22.3728 17.9922 22.3886C18.243 22.4262 18.6198 22.4819 19.3964 22.4819H19.4448L19.4291 22.4346C19.2328 21.8713 18.6925 21.0523 17.8262 19.9994C17.9038 19.7171 17.9801 19.533 18.2527 19.533ZM10.7726 22.4346L10.7569 22.4819H10.8054C11.5807 22.4819 11.9587 22.4262 12.2095 22.3886C12.3404 22.3728 12.4349 22.3583 12.5366 22.3583C12.7365 22.3583 12.8904 22.3777 12.8904 22.6236C12.8904 22.7896 12.6966 23.0525 12.5088 23.2052C12.2216 22.9362 11.8267 22.8829 11.2451 22.8829C10.9725 22.8829 10.6164 22.9314 10.4261 22.958L10.3959 22.9617L10.3619 22.9665L10.3728 23.0574C10.3959 23.2185 10.4237 23.4184 10.4237 23.6886L10.4201 23.9333L10.4165 24.2374C10.4165 24.8965 10.5073 25.2721 10.7387 25.5568C10.6781 25.5786 10.5824 25.5968 10.5194 25.5968C10.1099 25.5968 9.9912 25.4174 9.9912 24.2386C9.9912 24.0012 9.97909 23.7794 9.97061 23.6316L9.95849 23.4123L9.90761 23.4523C9.29941 23.9163 8.67184 24.745 8.63428 25.3641C8.45134 25.2466 8.25264 24.9813 8.25264 24.7777C8.25264 24.4397 8.76149 23.9321 9.3503 23.3433L9.68832 23.0053L9.73193 22.9617L9.62047 22.935C9.49326 22.9011 9.25822 22.8417 9.05832 22.8417C8.39803 22.8417 7.98611 22.9665 7.73047 23.2439C7.63839 23.1119 7.56207 22.8029 7.56207 22.6224C7.56207 22.5049 7.58509 22.4225 7.63234 22.3753C7.68928 22.3195 7.77893 22.3195 7.85768 22.3195H7.87464C8.60157 22.3195 9.47145 22.4504 9.81068 22.5049L9.83128 22.5097L9.84339 22.4928C9.90276 22.414 11.2888 20.5664 11.6498 19.5875C11.7322 19.556 11.8037 19.533 11.949 19.533C12.2216 19.533 12.298 19.7171 12.3767 19.9994C11.5093 21.0523 10.9689 21.8713 10.7726 22.4346ZM7.02657 5.86806C7.02657 4.48811 8.03093 3.39531 8.3847 3.08757C8.46951 3.10817 8.55432 3.12756 8.63912 3.14573C8.26355 3.6049 7.59963 4.37302 7.59963 5.39071C7.59963 7.41155 9.75859 9.16586 12.2035 9.16586C12.1877 9.33911 12.1792 9.52084 12.1792 9.70863C12.1792 10.0067 12.1962 10.2841 12.2253 10.5458C9.46055 10.5288 7.02657 8.28508 7.02657 5.86806ZM25.5704 10.1242C26.811 12.0857 27.7814 12.053 29.2474 12.053C28.0346 11.1237 27.2326 9.93277 26.8498 9.32457L24.5842 5.69965C24.3637 4.58019 23.7846 3.53342 22.9171 2.7544C23.2091 2.64415 23.4514 2.52784 23.5968 2.41759C22.1175 2.41759 20.6515 1.66644 19.8446 1.66644C19.3261 1.66644 18.9929 1.97659 18.9929 2.38609C19.0256 2.84284 19.4957 3.30686 20.3644 3.30686C20.5607 3.30686 20.8127 3.28142 21.0889 3.23538C21.559 3.89082 21.9382 4.48327 21.9382 5.32892C21.9382 6.91604 20.0409 8.15302 18.1255 8.15302C18.0164 8.15302 17.9135 8.14817 17.8056 8.1409C17.6324 7.74715 17.0545 7.08686 17.0545 6.33571C17.0545 5.0745 17.8771 4.04469 17.8771 2.79559C17.8771 2.019 17.4991 1.53802 17.3537 1.33811C17.5888 1.12004 17.8456 0.852286 17.9062 0.668132C17.7693 0.727498 17.6069 0.734765 17.3707 0.734765C16.4523 0.734765 15.7036 0.496094 14.9743 0.496094C14.5575 0.496094 14.446 0.624515 14.446 0.746881C14.446 0.791708 14.4521 0.837747 14.4642 0.859554C14.3091 0.798977 14.1637 0.758998 13.9905 0.727498C13.7748 0.686305 13.5434 0.665708 13.2963 0.665708C12.4094 0.665708 12.0944 1.03765 12.0944 1.35629C12.0944 1.62525 12.3065 2.11713 12.5476 2.49271C12.8928 2.31825 13.3084 2.20073 13.4974 2.20073C13.9687 2.20073 14.3867 2.649 14.6084 3.17965C14.2922 3.21842 14.2316 3.23175 13.9117 3.23175C13.0479 3.23175 12.4603 2.92281 12.3392 2.92281C12.3283 2.92281 12.3052 2.92886 12.3052 2.94825C12.3052 3.0694 12.55 3.38925 13.0322 3.56492C13.6682 3.79754 14.6205 3.89446 14.7792 3.92111C14.7792 3.94898 14.6181 4.24944 14.4375 4.30759C14.4 4.31971 14.3697 4.32092 14.3249 4.31123C13.661 4.18038 13.4756 4.12465 12.6336 3.8048C12.6081 3.79511 12.5924 3.81086 12.5924 3.83752C12.5924 4.17069 13.455 4.90609 14.228 5.18838C13.5822 6.01223 12.7765 6.85546 12.3961 8.1409C12.2883 8.14817 12.1841 8.15302 12.0763 8.15302C10.1608 8.15302 8.26355 6.91604 8.26355 5.32892C8.26355 4.48327 8.64276 3.89082 9.11284 3.23538C9.38907 3.28142 9.63986 3.30686 9.83734 3.30686C10.706 3.30686 11.1761 2.84284 11.21 2.38609C11.21 1.97659 10.8768 1.66644 10.3571 1.66644C9.5502 1.66644 8.08545 2.41759 6.60374 2.41759C6.75034 2.52784 6.99264 2.64415 7.28341 2.7544C6.41716 3.53342 5.83805 4.58019 5.61755 5.69965L3.35197 9.32457C2.97034 9.93277 2.16588 11.1237 0.953125 12.053C2.41909 12.053 3.39074 12.0857 4.63135 10.1242L5.79322 8.26569C5.87924 8.50679 5.98464 8.74183 6.10943 8.97202L3.79903 12.6684C3.41497 13.2815 2.61778 14.4615 1.40018 15.3968C2.86614 15.3968 3.8378 15.4307 5.07841 13.4705L7.06655 10.2865C7.21557 10.4452 7.37186 10.6003 7.53662 10.7481L4.7307 15.2405C4.34543 15.8548 3.55309 17.0324 2.33307 17.9665C3.79903 17.9665 4.77068 18.0016 6.01009 16.0401L8.74574 11.6604C8.92626 11.7743 9.11041 11.8846 9.30184 11.9887L5.96163 17.3328C5.57636 17.9471 4.78401 19.1211 3.56399 20.0588C5.02995 20.0588 6.00161 20.0927 7.24222 18.1325L10.6806 12.6284C10.8841 12.706 11.0901 12.7811 11.2997 12.8477L7.41426 19.0666C7.03505 19.6723 6.22453 20.8681 5.01784 21.7925C6.48259 21.7925 7.45545 21.8264 8.69485 19.8662L12.8359 13.2391C12.8783 13.2463 12.9195 13.2524 12.9607 13.2609C13.0734 13.6195 13.1521 13.9539 13.1521 14.287C13.1521 16.3697 11.7855 18.2088 10.1451 19.6287C10.2505 19.6747 10.4334 19.6905 10.6018 19.6905C10.941 19.6905 11.1591 19.6723 11.313 19.6457C10.9326 20.5095 10.116 21.6253 9.70407 22.202C9.16736 22.1051 8.38591 22.03 7.87464 22.03C7.33914 22.03 7.27857 22.3426 7.27857 22.6224C7.27857 23.1082 7.50634 23.4947 7.77045 23.7104C7.8698 23.462 8.0697 23.1301 9.05832 23.1301C9.0777 23.1301 9.11162 23.1325 9.15766 23.1361C8.86932 23.4572 7.9643 24.1889 7.9643 24.7777C7.9643 25.1679 8.39197 25.753 8.95534 25.753C8.92262 25.627 8.92626 25.5119 8.92626 25.4247C8.92626 24.9474 9.34909 24.3888 9.70649 23.9987C9.69559 24.115 9.70164 24.1029 9.70164 24.2386C9.70164 25.3666 9.80341 25.8851 10.5194 25.8851C10.8708 25.8851 11.1131 25.6925 11.1967 25.6343C10.7315 25.2066 10.7072 24.8698 10.7072 24.2374C10.7084 24.0726 10.7096 23.9115 10.7121 23.6898C10.7133 23.5444 10.7109 23.353 10.6878 23.2149C10.9435 23.1797 11.0477 23.1797 11.2451 23.1797C11.2451 23.1797 12.2616 23.0986 12.5076 23.628C12.7838 23.3748 13.1848 23.0174 13.1848 22.6236C13.1848 22.3632 13.0612 22.0687 12.5366 22.0687C12.338 22.0687 11.714 22.1899 11.1918 22.1899C11.3324 21.8785 11.9563 20.965 12.4979 20.3023C12.5803 20.5592 12.7075 20.8366 12.991 21.0644C13.031 20.6379 13.2805 19.2895 13.9469 18.5008C14.0244 19.0338 14.1286 19.5802 14.1286 20.7324C14.1286 23.5359 13.455 25.6064 12.0242 26.0014C12.2107 26.3249 12.6045 26.6169 13.0128 26.6169C13.5362 26.6169 13.8209 26.0244 14.1116 25.4659C14.2631 25.8778 14.6811 26.8882 15.1003 26.8882C15.5195 26.8882 15.9386 25.8778 16.0901 25.4659C16.3796 26.0244 16.6656 26.6169 17.1889 26.6169C17.5972 26.6169 17.991 26.3249 18.1776 26.0014C16.7467 25.6064 16.0719 23.5359 16.0719 20.7324C16.0719 19.5802 16.1761 19.0338 16.2536 18.5008C16.9212 19.2895 17.172 20.6379 17.2095 21.0644C17.4943 20.8366 17.6227 20.5592 17.7039 20.3023C18.2442 20.965 18.8694 21.8785 19.0099 22.1899C18.4877 22.1899 17.8626 22.0687 17.6651 22.0687C17.1417 22.0687 17.0181 22.3632 17.0181 22.6236C17.0181 23.0174 17.4191 23.3748 17.6954 23.628C17.9389 23.0986 18.9578 23.1797 18.9578 23.1797C19.1541 23.1797 19.2583 23.1797 19.5151 23.2149C19.4909 23.353 19.4897 23.5444 19.4909 23.6898C19.4933 23.9115 19.4933 24.0726 19.4945 24.2374C19.4945 24.8698 19.4703 25.2066 19.005 25.6343C19.0886 25.6925 19.331 25.8851 19.6823 25.8851C20.3983 25.8851 20.5013 25.3666 20.5013 24.2386C20.5013 24.1029 20.5049 24.115 20.4952 23.9987C20.8526 24.3888 21.2755 24.9474 21.2755 25.4247C21.2755 25.5119 21.2803 25.627 21.2452 25.753C21.8098 25.753 22.2386 25.1679 22.2386 24.7777C22.2386 24.1889 21.3336 23.4572 21.0429 23.1361C21.0901 23.1325 21.124 23.1301 21.1422 23.1301C22.132 23.1301 22.3319 23.462 22.4313 23.7104C22.6954 23.4947 22.9232 23.1082 22.9232 22.6224C22.9232 22.3426 22.8626 22.03 22.3271 22.03C21.8158 22.03 21.0356 22.1051 20.4977 22.202C20.0845 21.6253 19.2704 20.5095 18.8887 19.6457C19.0426 19.6723 19.2619 19.6905 19.5999 19.6905C19.7695 19.6905 19.9513 19.6747 20.0567 19.6287C18.4162 18.2088 17.0496 16.3697 17.0496 14.287C17.0496 13.9539 17.1284 13.6195 17.241 13.2609C17.281 13.2524 17.3246 13.2463 17.3658 13.2391L21.5069 19.8662C22.7463 21.8264 23.7191 21.7925 25.1839 21.7925C23.9772 20.8681 23.1667 19.6723 22.7875 19.0666L18.9009 12.8477C19.1117 12.7811 19.3188 12.706 19.5224 12.6284L22.9595 18.1325C24.2001 20.0927 25.1718 20.0588 26.6377 20.0588C25.4177 19.1211 24.6254 17.9471 24.2401 17.3328L20.9011 11.9887C21.0901 11.8846 21.2755 11.7743 21.4548 11.6604L24.1916 16.0401C25.4323 18.0016 26.4027 17.9665 27.8687 17.9665C26.6486 17.0324 25.8575 15.8548 25.471 15.2405L22.6651 10.7481C22.8299 10.6003 22.9874 10.4452 23.134 10.2865L25.1245 13.4705C26.3639 15.4307 27.3356 15.3968 28.8015 15.3968C27.5827 14.4615 26.788 13.2815 26.4027 12.6684L24.0935 8.97202C24.2171 8.74183 24.3225 8.50679 24.4097 8.26569L25.5704 10.1242Z" fill="black"/>
<path id="Vector_2" d="M40.8419 25.887H36.6016V1.65625H40.8419V25.887Z" fill="black"/>
<path id="Vector_3" d="M40.8419 50.1175H36.6016V25.8867H40.8419V50.1175Z" fill="#FF0000"/>
<path id="Vector_4" d="M40.8419 74.348H36.6016V50.1172H40.8419V74.348Z" fill="#FFCC00"/>
</g>
</svg>
