<?xml version="1.0" encoding="UTF-8"?><svg id="Layer_1" xmlns="http://www.w3.org/2000/svg" viewBox="0 0 424.27 61.42"><defs><style>.cls-1{fill:#fff;strokeWidth:0px;}</style></defs><path class="cls-1" d="m159.45,43.18l-3.3-9.83c1.28-.72,2.37-1.53,3.29-2.46h0s0,0,0,0c0,0,0,0,0,0h0c1.04-1.06,1.87-2.25,2.45-3.59,1.09-2.52,1.64-5.53,1.64-9.03,0-11.82-5.05-17.73-15.14-17.73h-13.8v60.4h8.58v-6.25h-7.01v-.02h7.02v-19.52h5.13l6.06,19.54h0l1.92,6.23h9.09l-5.95-17.74h0Zm-4.73-21.08c-.17,1.16-.49,2.14-.97,2.93s-1.16,1.39-2.06,1.82c-.9.43-2.11.64-3.62.64h-4.88V8.66h4.46c1.57,0,2.83.2,3.78.6.95.39,1.7,1,2.23,1.82.32.49.56,1.05.75,1.66h.01c.13.41.23.83.3,1.3.17,1.16.25,2.5.25,4.03s-.08,2.87-.25,4.03Z"/><path class="cls-1" d="m233.29,10.31c-.56-2.12-1.57-3.97-3.03-5.56-1.46-1.58-3.09-2.68-4.88-3.31-1.8-.62-3.87-.93-6.23-.93h-12.87v6.25h.01v47.9h0v6.25h8.58v-23.59h4.38c2.14,0,3.98-.25,5.57-.75v.02c.78-.24,1.51-.54,2.16-.91,1.96-1.1,3.53-2.64,4.71-4.62,1.01-1.64,1.67-3.41,1.98-5.3.31-1.89.46-4.17.46-6.83,0-3.62-.28-6.49-.84-8.61h0Zm-7.36,12.86c-.08,1.24-.35,2.3-.8,3.18-.09.18-.2.34-.31.5h0c-.44.64-1.03,1.16-1.79,1.57-.95.51-2.3.76-4.04.76h-4.12V8.65h4.46c1.68,0,2.97.27,3.87.81.68.41,1.21.92,1.62,1.55v.02c.13.2.25.42.35.64.42.93.67,2.04.76,3.31.08,1.27.13,2.62.13,4.03,0,1.53-.04,2.91-.13,4.16Z"/><polygon class="cls-1" points="240.78 6.75 240.78 6.76 240.78 54.66 240.78 60.9 249.36 60.9 249.36 54.66 249.36 6.76 249.36 6.75 249.36 .51 240.78 .51 240.78 6.75"/><path class="cls-1" d="m386.97,12.73c-.11-1.04-.3-2.03-.59-2.96-.16-.5-.34-.99-.55-1.46-.36-.8-.78-1.53-1.24-2.21-.61-.91-1.3-1.72-2.09-2.42-1.37-1.22-2.92-2.13-4.63-2.76C376.16.31,374.43,0,372.7,0s-3.46.31-5.17.93-3.25,1.54-4.63,2.76c-1.38,1.22-2.48,2.76-3.32,4.62-.01.02-.02.05-.03.07-.76,1.7-1.15,3.65-1.21,5.82,0,.19-.02.36-.02.55v31.9c0,.23.02.43.03.65.06,2.06.43,3.88,1.09,5.47.05.12.09.25.14.36.08.17.17.32.25.48.74,1.49,1.67,2.76,2.78,3.81.1.1.19.2.3.29.72.64,1.5,1.19,2.31,1.67.73.43,1.5.79,2.31,1.09,1.28.46,2.56.75,3.85.87h.02c.11,0,.21,0,.32.01.33.02.66.04.99.04.29,0,.57-.02.85-.04,1.45-.09,2.89-.38,4.32-.9,1.71-.62,3.25-1.54,4.63-2.76.85-.76,1.6-1.65,2.24-2.65.08-.13.17-.25.24-.38h0c.29-.48.56-.98.81-1.52.21-.45.39-.93.55-1.42.48-1.5.72-3.19.72-5.07V14.76c0-.7-.05-1.37-.12-2.03h0Zm-8.48,33.92c0,2.05-.56,3.57-1.67,4.56-.02.02-.04.05-.06.07-1.15.99-2.51,1.48-4.08,1.48s-2.93-.49-4.08-1.48c-1.15-.99-1.72-2.53-1.72-4.62V14.76c0-.76.1-1.41.25-2.03h.02c.1-.42.24-.81.42-1.16.27-.55.61-1.04,1.05-1.43,1.15-.99,2.51-1.48,4.08-1.48s2.93.5,4.08,1.48c.17.15.3.33.45.51.48.56.82,1.25,1.02,2.07h0c.15.61.25,1.28.25,2.03v31.9Z"/><polygon class="cls-1" points="415.69 .51 415.69 6.76 415.69 36.9 415.52 36.9 404.79 6.76 402.56 .51 394.32 .51 394.32 60.91 402.9 60.91 402.9 54.66 402.9 24.6 403.07 24.6 413.93 54.66 416.19 60.91 424.27 60.91 424.27 .51 415.69 .51"/><polygon class="cls-1" points="5.42 36.44 0 60.91 8.58 60.91 9.8 54.66 5.42 54.66 5.42 36.44"/><polygon class="cls-1" points="257.69 60.91 283.27 60.91 283.27 54.54 283.26 54.54 283.26 52.26 266.29 52.26 266.28 34.52 281.08 34.52 281.08 26.38 266.28 26.38 266.27 8.65 283.27 8.65 283.27 .51 257.69 .51 257.69 60.91"/><path class="cls-1" d="m194.34,4.62c-2.58-2.74-6.31-4.11-11.19-4.11h-12.7v6.24h-.01v47.91h21.69V6.76h.01v47.91h-21.69v6.24h0s11.95.01,11.95.01c5.1,0,9.01-1.34,11.74-4.03,2.72-2.68,4.08-6.86,4.08-12.51v-28.25c0-4.92-1.29-8.75-3.87-11.49v-.02Zm-4.71,40.59h-.01c0,2.6-.5,4.51-1.51,5.73-1.01,1.22-2.72,1.82-5.13,1.82h-3.95V8.65h3.95c2.52,0,4.26.65,5.22,1.95.95,1.3,1.43,3.14,1.43,5.51v29.1Z"/><polygon class="cls-1" points="299.62 27.49 299.63 27.49 299.62 27.48 299.62 27.49"/><polygon class="cls-1" points="77.82 52.26 77.82 12.73 77.82 .51 69.24 .51 69.24 60.91 94.82 60.91 94.82 52.26 94.07 52.26 77.82 52.26"/><path class="cls-1" d="m352.42,17.9v-4.24c0-.31-.03-.62-.05-.93h-9.04c.33.98.51,2.05.51,3.22v1.95h8.58Z"/><path class="cls-1" d="m350.78,33.21c-.65-1.33-1.56-2.49-2.73-3.48-1.18-.99-2.72-1.85-4.63-2.59l-6.56-2.63c-1.12-.45-2.01-.9-2.65-1.36-.64-.45-1.14-.98-1.47-1.57-.17-.31-.31-.65-.42-1.02v.02c-.1-.34-.17-.71-.21-1.1-.08-.82-.13-1.82-.13-3.01,0-1.02.08-1.99.25-2.93.02-.12.06-.21.09-.33.04-.16.08-.32.13-.48.17-.6.38-1.16.67-1.66.42-.71,1.01-1.29,1.77-1.74s1.72-.68,2.9-.68c2.19,0,3.74.72,4.67,2.16.38.59.66,1.23.88,1.91h9.04c-.1-1.37-.41-2.72-.96-4.03h-.01c-.67-1.6-1.64-3.06-2.9-4.36s-2.78-2.35-4.54-3.14C342.2.4,340.25,0,338.12,0c-2.47,0-4.63.44-6.48,1.32-1.85.88-3.38,2.05-4.59,3.52-1.21,1.47-2.12,3.22-2.73,5.26-.62,2.04-.92,4.19-.92,6.45,0,3.79.63,6.94,1.89,9.46,1.21,2.42,3.56,4.37,7.03,5.88v-.02c.14.06.27.13.42.19l6.14,2.54c1.07.45,1.92.88,2.57,1.27.64.4,1.15.91,1.51,1.53s.6,1.44.71,2.46c.11,1.02.17,2.32.17,3.9,0,1.36-.06,2.6-.17,3.73s-.38,2.08-.8,2.84c-.42.76-1.04,1.36-1.85,1.78-.81.42-1.95.64-3.41.64-2.19,0-3.74-.64-4.67-1.91-.24-.32-.44-.67-.62-1.01h0c-.5-1.01-.76-2.09-.76-3.26v-2.72h-8.58v3.22c0,2.04.38,3.93,1.13,5.68.76,1.75,1.78,3.27,3.07,4.54,1.29,1.27,2.83,2.28,4.63,3.01,1.79.73,3.73,1.1,5.8,1.1,2.75,0,5.08-.45,6.98-1.36,1.91-.9,3.43-2.14,4.59-3.69.39-.53.73-1.11,1.05-1.71h0c.61-1.17,1.1-2.44,1.44-3.88.51-2.18.76-4.54.76-7.07,0-2.21-.11-4.17-.34-5.9-.22-1.72-.66-3.25-1.3-4.58Z"/><polygon class="cls-1" points="352.42 43.69 352.42 43.68 352.42 43.69 352.42 43.69"/><path class="cls-1" d="m28.7,37.34l-6.77-30.59h-.02l-1.38-6.24h-7.15l-1.39,6.24h.02l-6.57,29.68v18.22h4.36l1.31-6.72h11.7l1.31,6.73h-.01l1.21,6.25h8.58l-5.2-23.52v-.05Zm-16.07,2.44h-.01l4.21-21.89h.17l4.21,21.89h-8.58Z"/><polygon class="cls-1" points="9.82 54.65 9.8 54.65 9.8 54.66 9.82 54.65"/><polygon class="cls-1" points="46.69 52.26 46.69 12.73 46.69 .51 38.11 .51 38.11 12.73 38.11 54.66 38.11 60.91 63.69 60.91 63.69 52.26 61.38 52.26 46.69 52.26"/><path class="cls-1" d="m126.76,44.45h0s0-.01,0-.01l-7.02-31.7h-.01s-2.71-12.23-2.71-12.23h-7.15l-2.71,12.22h.01l-3.68,16.62-6.99,31.56h8.58l1.21-6.24h0l1.31-6.73h11.7l1.31,6.73h0l1.21,6.23h8.58l-3.64-16.42v-.03Zm-17.63-4.66h-.01l4.21-21.89h.17l4.21,21.89h-8.58Z"/><path class="cls-1" d="m310.35,33.34c2.75-1.53,4.67-3.55,5.77-6.07,1.09-2.52,1.64-5.53,1.64-9.03,0-2.25-.4-5.13-.45-5.51h0c-1.43-8.14-6.32-12.22-14.69-12.22h-13.8v60.4h8.58v-25.79h2.23v-7.63h-2.22V8.65h4.46c1.57,0,2.83.2,3.78.6.95.39,1.7,1,2.23,1.82.32.49.56,1.05.75,1.66h.01c.13.41.23.85.3,1.31.17,1.16.25,2.5.25,4.03s-.08,2.87-.25,4.03c-.17,1.16-.49,2.14-.97,2.93-.48.79-1.16,1.4-2.06,1.82-.9.42-2.1.64-3.62.64h-2.65v7.63h2.9l6.06,19.54,1.93,6.25h9.09l-2.1-6.25-7.16-21.32Z"/><path class="cls-1" d="m317.31,12.73h0c-.01-.06-.01-.06,0,0Z"/></svg>