<?xml version="1.0" encoding="UTF-8"?>
<svg id="Layer_1" data-name="Layer 1" xmlns="http://www.w3.org/2000/svg" viewBox="0 0 424.27 61.42">
  <defs>
    <style>
      .cls-1 {
        fill: none;
      }

      .cls-2 {
        fill: #ec6710;
      }

      .cls-3 {
        fill: #a01a16;
      }

      .cls-4 {
        fill: #b2b2b2;
      }
    </style>
  </defs>
  <path class="cls-1" d="m372.7,8.65c1.57,0,2.93.5,4.08,1.48.17.15.3.33.45.51-.15-.17-.28-.36-.45-.51-1.15-.99-2.51-1.48-4.08-1.48s-2.93.5-4.08,1.48c-.45.38-.78.88-1.05,1.43.27-.55.61-1.04,1.05-1.43,1.15-.99,2.51-1.48,4.08-1.48Z"/>
  <path class="cls-1" d="m386.97,12.73c-.11-1.04-.3-2.03-.59-2.96.29.92.48,1.91.59,2.96h0Z"/>
  <path class="cls-1" d="m362.6,57.43c-1.11-1.05-2.04-2.32-2.78-3.81.74,1.49,1.67,2.76,2.78,3.81Z"/>
  <path class="cls-1" d="m362.9,3.69c1.37-1.22,2.92-2.13,4.63-2.76C369.23.31,370.96,0,372.7,0s3.46.31,5.17.93c1.71.62,3.25,1.54,4.63,2.76.79.69,1.47,1.51,2.09,2.42-.61-.91-1.3-1.72-2.08-2.42-1.38-1.22-2.92-2.13-4.63-2.76-1.71-.62-3.44-.93-5.17-.93s-3.46.31-5.17.93c-1.71.62-3.25,1.54-4.63,2.76-1.38,1.22-2.48,2.76-3.32,4.62.84-1.87,1.95-3.41,3.32-4.62Z"/>
  <path class="cls-1" d="m358.33,14.21c.06-2.17.45-4.12,1.21-5.82-.76,1.7-1.15,3.65-1.21,5.82Z"/>
  <path class="cls-1" d="m359.43,52.78c-.67-1.59-1.03-3.41-1.09-5.47.06,2.06.43,3.88,1.09,5.47Z"/>
  <path class="cls-1" d="m378.25,12.73c-.2-.83-.54-1.52-1.02-2.08-.15-.17-.28-.36-.45-.51-1.15-.99-2.51-1.48-4.08-1.48s-2.93.5-4.08,1.48c-.45.38-.78.88-1.05,1.43-.18.35-.32.74-.42,1.16"/>
  <path class="cls-1" d="m377.87,60.48c-1.43.52-2.87.81-4.32.9,1.45-.09,2.89-.37,4.32-.89,1.71-.62,3.25-1.54,4.63-2.76.85-.76,1.59-1.65,2.24-2.65-.65,1-1.39,1.89-2.24,2.65-1.37,1.22-2.92,2.14-4.63,2.76Z"/>
  <path class="cls-1" d="m365.21,59.4c.73.43,1.5.79,2.31,1.09,1.28.46,2.56.75,3.85.87-1.29-.12-2.58-.41-3.85-.87-.81-.29-1.58-.66-2.31-1.09Z"/>
  <path d="m378.25,12.73c-.2-.83-.54-1.52-1.02-2.08.48.56.82,1.26,1.02,2.08h0Z"/>
  <path d="m371.71,61.37c.33.02.66.04.99.04.29,0,.57-.02.85-.04-.28.02-.57.04-.85.04-.33,0-.66-.02-.99-.04Z"/>
  <path d="m367.57,11.56c-.18.35-.32.74-.42,1.16h0c.1-.42.24-.81.42-1.16Z"/>
  <path d="m359.57,8.31s-.02.05-.03.07c.01-.02.02-.05.03-.07,0,0,0,0,0,0Z"/>
  <path d="m384.74,55.08c.09-.14.19-.27.27-.42h0c-.09.14-.18.28-.27.42Z"/>
  <path d="m386.37,9.77c-.16-.5-.34-.99-.55-1.46-.36-.8-.78-1.53-1.24-2.21.46.68.88,1.41,1.24,2.21.21.47.4.95.55,1.46Z"/>
  <path d="m359.43,52.78c.05.12.09.25.14.36.08.17.17.32.25.48-.08-.16-.17-.31-.25-.48-.05-.12-.09-.24-.14-.36Z"/>
  <path d="m362.6,57.43c.1.1.19.2.3.29.72.64,1.5,1.19,2.31,1.67-.82-.48-1.59-1.03-2.31-1.67-.1-.09-.2-.2-.3-.29Z"/>
  <path d="m358.31,14.76c0-.19.02-.37.02-.55,0,.19-.02.36-.02.55v31.9c0,.23.02.43.03.65,0-.22-.03-.43-.03-.65V14.76Z"/>
  <path class="cls-4" d="m154.11,11.9s-.02-.04-.03-.07c0,.02.02.04.03.07Z"/>
  <g>
    <polygon class="cls-3" points="159.45 43.17 159.45 54.66 154.38 54.66 156.31 60.91 165.4 60.91 159.45 43.17"/>
    <path class="cls-3" d="m194.34,4.62c-2.58-2.74-6.31-4.11-11.19-4.11h-12.7v6.25h21.69v47.91h-21.69v6.24h11.95c5.1,0,9.02-1.34,11.73-4.03,2.72-2.68,4.08-6.86,4.08-12.51v-28.25c0-4.92-1.29-8.75-3.87-11.49Z"/>
    <g>
      <polygon class="cls-3" points="94.82 52.26 94.07 52.26 94.07 54.66 70.8 54.66 70.8 12.73 77.82 12.73 77.82 .51 69.24 .51 69.24 60.91 94.82 60.91 94.82 52.26"/>
      <path class="cls-3" d="m136.18,54.66V12.73h7.01v-4.07h4.46c1.57,0,2.83.2,3.78.6.95.39,1.7,1,2.23,1.82.32.49.56,1.05.75,1.66h5.03v18.15c1.05-1.06,1.88-2.26,2.46-3.6,1.09-2.52,1.64-5.53,1.64-9.03,0-11.82-5.05-17.73-15.14-17.73h-13.8v60.4h8.58v-6.25h-7.01Z"/>
      <rect class="cls-3" x="206.29" y="54.66" width="8.58" height="6.25"/>
      <path class="cls-3" d="m233.29,10.31c-.56-2.12-1.57-3.97-3.03-5.56-1.46-1.58-3.09-2.68-4.88-3.31-1.8-.62-3.87-.93-6.23-.93h-12.87v6.25h18.54v4.27c.13.2.25.42.35.64.42.93.67,2.04.76,3.31.08,1.27.13,2.62.13,4.03,0,1.53-.04,2.91-.13,4.16-.08,1.24-.35,2.3-.8,3.18-.09.18-.2.34-.31.5v9.74c.78-.24,1.51-.54,2.16-.91,1.96-1.1,3.53-2.64,4.71-4.62,1.01-1.64,1.67-3.41,1.98-5.3.31-1.89.46-4.17.46-6.83,0-3.62-.28-6.49-.84-8.61Z"/>
      <rect class="cls-3" x="240.78" y="54.66" width="8.58" height="6.24"/>
      <rect class="cls-3" x="240.78" y=".51" width="8.58" height="6.25"/>
      <path class="cls-3" d="m332.32,49.82c-.5-1-.76-2.08-.76-3.25v-2.72h-8.58v3.22c0,2.04.38,3.93,1.13,5.68.76,1.75,1.78,3.27,3.07,4.54,1.29,1.27,2.83,2.28,4.63,3.01,1.79.73,3.73,1.1,5.8,1.1,2.75,0,5.08-.45,6.98-1.36,1.91-.9,3.43-2.14,4.59-3.69.39-.53.73-1.11,1.05-1.71h-17.91v-4.84Z"/>
      <path class="cls-3" d="m351.41,8.7c-.67-1.61-1.64-3.07-2.9-4.37-1.26-1.3-2.78-2.35-4.54-3.14C342.2.4,340.25,0,338.12,0c-2.47,0-4.63.44-6.48,1.32-1.85.88-3.38,2.05-4.59,3.52-1.21,1.47-2.12,3.22-2.73,5.26-.62,2.04-.92,4.19-.92,6.45,0,3.79.63,6.94,1.89,9.46,1.21,2.42,3.56,4.37,7.03,5.88v-11.31c-.1-.34-.17-.71-.21-1.1-.08-.82-.13-1.82-.13-3.01,0-1.02.08-1.99.25-2.93.02-.12.06-.21.09-.33.04-.16.08-.32.13-.48.17-.6.38-1.16.67-1.66.42-.71,1.01-1.29,1.77-1.74.76-.45,1.72-.68,2.9-.68,2.19,0,3.74.72,4.67,2.16.38.59.66,1.23.88,1.91h9.04c-.1-1.37-.41-2.72-.96-4.03Z"/>
      <path class="cls-3" d="m365.01,54.66V12.73h2.14c.1-.42.24-.81.42-1.16.27-.55.61-1.04,1.05-1.43,1.15-.99,2.51-1.48,4.08-1.48s2.93.5,4.08,1.48c.17.15.3.33.45.51.48.56.82,1.26,1.02,2.08h8.72c-.11-1.04-.3-2.03-.59-2.96-.16-.5-.34-.99-.55-1.46-.36-.8-.78-1.53-1.24-2.21-.61-.91-1.3-1.72-2.09-2.42-1.37-1.22-2.92-2.13-4.63-2.76C376.16.31,374.43,0,372.7,0s-3.46.31-5.17.93c-1.71.62-3.25,1.54-4.63,2.76-1.38,1.22-2.48,2.76-3.32,4.62-.01.02-.02.05-.03.07-.76,1.7-1.15,3.65-1.21,5.82,0,.19-.02.36-.02.55v31.9c0,.23.02.43.03.65.06,2.06.43,3.88,1.09,5.47.05.12.09.25.14.36.08.17.17.32.25.48.74,1.49,1.67,2.76,2.78,3.81.1.1.19.2.3.29.72.64,1.5,1.19,2.31,1.67.73.43,1.5.79,2.31,1.09,1.28.46,2.56.75,3.85.87,0,0,.01,0,.02,0,.11,0,.21,0,.32.01.33.02.66.04.99.04.29,0,.57-.02.85-.04,1.45-.09,2.89-.38,4.32-.9,1.71-.62,3.25-1.54,4.63-2.76.85-.76,1.6-1.65,2.24-2.65.09-.14.19-.27.27-.42h-20.01Z"/>
      <polygon class="cls-3" points="397.7 54.66 397.7 6.76 404.79 6.76 402.56 .51 394.32 .51 394.32 60.91 402.9 60.91 402.9 54.66 397.7 54.66"/>
      <polygon class="cls-3" points="415.69 .51 415.69 6.76 420.96 6.76 420.96 54.66 413.93 54.66 416.19 60.91 424.27 60.91 424.27 .51 415.69 .51"/>
      <polygon class="cls-3" points="28.69 37.34 28.69 54.66 24.11 54.66 25.32 60.91 33.9 60.91 28.69 37.34"/>
      <polygon class="cls-3" points="11.99 6.75 21.91 6.75 20.53 .51 13.38 .51 11.99 6.75"/>
      <polygon class="cls-3" points="5.42 36.44 5.42 54.66 9.8 54.66 8.58 60.91 0 60.91 5.42 36.44"/>
      <path class="cls-3" d="m96.5,60.91h8.58l1.21-6.24h-2.8v-25.32l-6.99,31.56Zm30.26-16.47v10.22h-6.15l1.21,6.24h8.58l-3.65-16.47Zm-19.59-31.71h12.56l-2.71-12.22h-7.15l-2.71,12.22Z"/>
      <polygon class="cls-3" points="266.27 8.65 283.27 8.65 283.27 .51 257.69 .51 257.69 60.91 283.27 60.91 283.27 54.54 266.29 54.54 266.27 8.65"/>
      <path class="cls-3" d="m194.34,4.62c-2.58-2.74-6.31-4.11-11.19-4.11h-12.7v6.25h21.69v47.91h-21.69v6.25s11.95,0,11.95,0c5.1,0,9.01-1.34,11.74-4.03,2.72-2.68,4.08-6.86,4.08-12.51v-28.25c0-4.92-1.29-8.75-3.87-11.49Z"/>
      <rect class="cls-3" x="38.11" y=".51" width="8.58" height="12.22"/>
      <polygon class="cls-3" points="61.38 52.26 61.38 54.66 38.11 54.66 38.11 60.91 63.69 60.91 63.69 52.26 61.38 52.26"/>
      <path class="cls-3" d="m299.63,27.49h-2.23V8.65h4.46c1.57,0,2.83.2,3.78.6.95.39,1.7,1,2.23,1.82.32.49.56,1.05.75,1.66h8.68c-1.43-8.14-6.32-12.22-14.69-12.22h-13.8v60.4h8.58v-25.79h2.23v-7.64Z"/>
      <polygon class="cls-3" points="308.59 54.66 310.52 60.91 319.61 60.91 317.51 54.66 308.59 54.66"/>
    </g>
  </g>
  <g>
    <polygon class="cls-2" points="70.8 12.73 70.8 54.66 94.07 54.66 94.07 52.26 77.82 52.26 77.82 12.73 70.8 12.73"/>
    <path class="cls-2" d="m343.33,12.73h9.04c.02.31.05.62.05.93v4.24h-8.58v-1.95c0-1.17-.18-2.24-.51-3.22Zm9.09,30.96c0-2.21-.11-4.17-.34-5.9-.22-1.72-.66-3.25-1.3-4.58-.65-1.33-1.56-2.49-2.73-3.48-1.18-.99-2.72-1.85-4.63-2.59l-6.56-2.63c-1.12-.45-2.01-.9-2.65-1.36-.64-.45-1.14-.98-1.47-1.57-.17-.31-.31-.65-.42-1.02v11.31c.14.06.27.13.42.19l6.14,2.54c1.07.45,1.92.88,2.57,1.27.64.4,1.15.91,1.51,1.53.36.62.6,1.44.71,2.46.11,1.02.17,2.32.17,3.9,0,1.36-.06,2.6-.17,3.73-.11,1.13-.38,2.08-.8,2.84-.42.76-1.04,1.36-1.85,1.78-.81.42-1.95.64-3.41.64-2.19,0-3.74-.64-4.67-1.91-.24-.33-.45-.68-.63-1.03v4.84h17.91c.61-1.17,1.1-2.45,1.44-3.89.51-2.18.76-4.54.76-7.08Z"/>
    <path class="cls-2" d="m387.08,14.76c0-.7-.05-1.38-.12-2.04h-8.72c.15.61.25,1.28.25,2.03v31.9c0,2.05-.56,3.57-1.67,4.56-.02.02-.04.05-.06.07-1.15.99-2.51,1.48-4.08,1.48s-2.93-.49-4.08-1.48c-1.15-.99-1.72-2.53-1.72-4.62h0V14.76h0c0-.76.1-1.42.25-2.04h-2.14v41.94h20.01c.29-.48.56-.98.81-1.52.21-.45.39-.93.55-1.42.48-1.5.72-3.19.72-5.07V14.76Z"/>
    <polygon class="cls-2" points="415.69 36.9 415.52 36.9 404.79 6.76 397.7 6.76 397.7 54.66 402.9 54.66 402.9 24.6 403.07 24.6 413.93 54.66 420.96 54.66 420.96 6.76 415.69 6.76 415.69 36.9"/>
    <path class="cls-2" d="m9.8,54.66l1.31-6.73h0s11.7,0,11.7,0l1.31,6.73h4.58v-17.32l-6.77-30.59h-9.92l-6.57,29.68v18.22h4.38Zm2.82-14.88l4.21-21.89h.17l4.21,21.89h-8.58Z"/>
    <polygon class="cls-2" points="61.38 52.26 46.69 52.26 46.69 12.73 38.11 12.73 38.11 54.66 61.38 54.66 61.38 52.26"/>
    <path class="cls-2" d="m119.73,12.73h-12.56l-3.68,16.62v25.32h2.8l1.31-6.73h11.7l1.31,6.73h6.15v-10.22l-7.02-31.71Zm-10.61,27.06l4.21-21.89h.17l4.21,21.89h-8.58Z"/>
    <path class="cls-2" d="m192.13,6.75h-21.69v47.91h21.69V6.75Zm-2.51,38.46c0,2.6-.5,4.51-1.51,5.73-1.01,1.22-2.72,1.82-5.13,1.82h-3.95V8.65h3.95c2.52,0,4.26.65,5.22,1.95.95,1.3,1.43,3.14,1.43,5.51v29.1Z"/>
    <path class="cls-2" d="m143.19,54.66h-7.01V12.73h7.01v14.76h4.88c1.51,0,2.72-.21,3.62-.64.9-.43,1.58-1.03,2.06-1.82.48-.79.8-1.77.97-2.93.17-1.16.25-2.5.25-4.03s-.08-2.87-.25-4.03c-.07-.47-.17-.9-.3-1.31h5.03v18.15c-.92.93-2.02,1.75-3.3,2.47l3.3,9.83v11.5h-5.07l-6.06-19.54h-5.13v19.54Z"/>
    <path class="cls-2" d="m224.83,26.84c-.44.64-1.03,1.17-1.8,1.58-.95.51-2.3.76-4.04.76h-4.12V8.65h4.46c1.68,0,2.97.27,3.87.81.68.41,1.22.93,1.63,1.56v-4.27h-18.54v47.91h8.58v-17.34h4.38c2.14,0,3.99-.25,5.58-.75v-9.74Z"/>
    <rect class="cls-2" x="240.78" y="6.75" width="8.58" height="47.91"/>
    <polygon class="cls-2" points="266.28 34.52 281.08 34.52 281.08 26.38 266.27 26.38 266.28 34.52"/>
    <rect class="cls-2" x="266.27" y="52.26" width="16.99" height="2.28"/>
    <path class="cls-2" d="m299.63,27.49v7.63h2.9l6.06,19.54h8.92l-7.16-21.32c2.75-1.53,4.67-3.55,5.77-6.07,1.09-2.52,1.64-5.53,1.64-9.03,0-2.58-.53-5.98-.45-5.51h-8.68c.13.41.23.85.3,1.31.17,1.16.25,2.5.25,4.03s-.08,2.87-.25,4.03c-.17,1.16-.49,2.14-.97,2.93-.48.79-1.16,1.4-2.06,1.82-.9.42-2.1.64-3.62.64h-2.65Z"/>
  </g>
</svg>