<?xml version="1.0" encoding="UTF-8"?><svg id="Ebene_1" xmlns="http://www.w3.org/2000/svg" viewBox="0 0 106 31"><defs><style>.cls-1{fill:#fff;}</style></defs><path class="cls-1" d="M44.94,7.84c-.72-.18-1.46-.26-2.21-.26-1.23,0-2.4,.25-3.5,.74-1.09,.49-2.05,1.18-2.89,2.07-.84,.88-1.49,1.92-1.97,3.13-.47,1.2-.7,2.5-.7,3.92s.25,2.69,.75,3.71c.5,1.03,1.21,1.81,2.13,2.36,.92,.54,2.01,.82,3.27,.82,.72,0,1.47-.09,2.24-.26,.78-.18,1.47-.4,2.06-.67l.14-2.36c-.63,.23-1.28,.45-1.94,.66-.66,.2-1.33,.3-2,.3-.91,0-1.65-.2-2.22-.6-.57-.41-.99-.96-1.25-1.67-.27-.71-.4-1.53-.4-2.46s.13-1.89,.39-2.76c.27-.87,.66-1.66,1.16-2.35,.51-.69,1.13-1.23,1.86-1.63,.74-.41,1.58-.61,2.53-.61,.74,0,1.41,.11,2.01,.32,.61,.21,1.16,.43,1.66,.64l.7-2.36c-.48-.28-1.09-.5-1.82-.68Z"/><path class="cls-1" d="M53.21,20.98c-.29,.37-.62,.67-.98,.86-.41,.21-.86,.32-1.33,.32-1.17,0-1.76-.68-1.76-2.05,0-.14,.01-.31,.03-.52,.02-.21,.06-.46,.12-.76l1.06-6.2h-2.42l-1.1,6.47c-.06,.34-.11,.64-.14,.89-.02,.25-.03,.46-.03,.66,0,1.12,.28,2,.85,2.63,.58,.63,1.41,.94,2.52,.94,.66,0,1.23-.13,1.71-.4,.45-.24,.85-.56,1.23-.93l-.1,1.1h2.24l1.99-11.36h-2.41l-1.47,8.34Z"/><path class="cls-1" d="M65.3,12.32c-.43,0-.85,.09-1.28,.26-.42,.18-.82,.42-1.21,.74-.32,.26-.62,.57-.9,.91l.15-1.59h-2.2l-2,11.36h2.45l1.4-7.89c.12-.2,.28-.39,.48-.57,.26-.23,.55-.41,.86-.55,.32-.15,.64-.22,.95-.22h.9l.91-2.45h-.53Z"/><path class="cls-1" d="M76.68,12.64h-2.12l-.38,1.01c-.11-.16-.22-.31-.35-.43-.31-.29-.66-.5-1.05-.62-.38-.12-.8-.18-1.24-.18-.92,0-1.76,.2-2.52,.61-.75,.4-1.4,.94-1.94,1.63-.54,.68-.97,1.45-1.27,2.31-.29,.85-.44,1.73-.44,2.63s.16,1.72,.48,2.41c.32,.69,.78,1.23,1.37,1.62,.6,.39,1.3,.59,2.12,.59,.59,0,1.12-.09,1.6-.26,.48-.18,.92-.43,1.3-.74,.2-.17,.39-.34,.57-.53,.04,.14,.09,.28,.13,.39,.15,.34,.34,.59,.58,.76,.24,.16,.53,.26,.89,.31,.36,.05,.8,.07,1.33,.07l.61-1.94c-.41,0-.7-.05-.86-.15-.16-.11-.24-.34-.24-.69,0-.23,.03-.53,.09-.89l1.35-7.92Zm-3.37,6.65c-.15,.56-.38,1.06-.68,1.49s-.66,.78-1.08,1.02c-.41,.25-.88,.37-1.4,.37-.8,0-1.38-.28-1.74-.85-.35-.57-.53-1.28-.53-2.13s.15-1.62,.44-2.33c.3-.72,.71-1.3,1.22-1.72,.52-.44,1.12-.66,1.78-.66s1.24,.25,1.63,.75c.4,.5,.6,1.25,.6,2.25,0,.64-.08,1.24-.24,1.81Z"/><path class="cls-1" d="M83.36,9.71l-2.45,.25c-.17,.97-.33,1.85-.48,2.68h-1.39l-.55,1.92h1.6c-.07,.38-.13,.74-.19,1.07-.26,1.47-.46,2.63-.61,3.48-.15,.84-.25,1.46-.32,1.86-.06,.39-.1,.65-.11,.77-.02,.12-.02,.21-.02,.25,0,.59,.18,1.11,.54,1.56,.36,.44,.97,.67,1.83,.67h1.83l.56-1.94h-.67c-.59,0-1-.04-1.23-.13-.23-.08-.35-.32-.35-.71l1.18-6.89h2.43l.36-1.92h-2.46l.5-2.93Z"/><path class="cls-1" d="M94.32,13.08c-.66-.44-1.49-.66-2.5-.66-.94,0-1.79,.19-2.58,.58-.78,.38-1.46,.89-2.04,1.54-.57,.65-1.01,1.4-1.32,2.23-.31,.83-.47,1.7-.47,2.62s.16,1.72,.48,2.46c.33,.73,.82,1.31,1.48,1.74,.66,.43,1.49,.64,2.5,.64,.94,0,1.81-.19,2.59-.56,.78-.38,1.46-.89,2.02-1.54,.58-.66,1.02-1.4,1.33-2.23,.31-.84,.47-1.71,.47-2.62s-.16-1.71-.49-2.45c-.32-.74-.82-1.32-1.48-1.75Zm-.95,6.75c-.29,.71-.71,1.28-1.25,1.71-.54,.42-1.17,.63-1.89,.63-.78,0-1.37-.26-1.76-.77-.38-.52-.58-1.26-.58-2.21,0-.87,.15-1.66,.45-2.37,.3-.71,.72-1.28,1.25-1.7,.54-.43,1.18-.64,1.9-.64,.77,0,1.35,.26,1.74,.77,.39,.51,.59,1.24,.59,2.21,0,.86-.15,1.65-.45,2.37Z"/><path class="cls-1" d="M104.76,12.32c-.43,0-.85,.09-1.28,.26-.42,.18-.82,.42-1.21,.74-.32,.26-.62,.57-.9,.91l.15-1.59h-2.2l-2,11.36h2.45l1.4-7.89c.12-.2,.28-.39,.48-.57,.26-.23,.55-.41,.86-.55,.32-.15,.64-.22,.95-.22h.9l.91-2.45h-.53Z"/><path class="cls-1" d="M28.79,28.69c-6.52,.61-10.61-1.26-11.85-5.39-.65-2.19-.47-4.77,.27-7.33,3.8-3.29,13.29-11.86,11.9-14.11-.75-1.21-2.5-.42-4.23,.49-3.62,1.92-7.13,6.4-8.98,11.28-.56-1.99-1.66-4.1-3.26-6.16C9.24,3.07,4.45,0,1,0,.45,0,0,.45,0,1s.45,1,1,1c2.82,0,7.06,2.82,10.06,6.7,1.91,2.47,3.03,4.96,3.23,7.1-.33,.23-.7,.49-1.1,.77-4.02,2.8-10.76,7.48-11.98,11.83-.31,1.12,.02,1.76,.35,2.09,.33,.33,.78,.5,1.33,.5,.29,0,.62-.05,.97-.14,2.67-.72,8.02-4.65,10.76-9.08,.07,.72,.21,1.43,.41,2.1,.88,2.94,3.85,7.75,13.95,6.81,.55-.05,.95-.54,.9-1.09s-.53-.95-1.09-.9Zm-2.97-24.57c.3-.16,.56-.29,.78-.39-1.45,1.93-4.81,5.39-7.74,8.15,1.77-3.41,4.34-6.37,6.96-7.76ZM3.12,28.99s0-.03,.01-.05c1-3.55,7.26-7.99,10.88-10.51-1.65,5.1-8.94,10.24-10.89,10.56Z"/></svg>